<svg xmlns="http://www.w3.org/2000/svg" width="38.44" height="30.823" viewBox="0 0 38.44 30.823">
  <path id="Path_1204" data-name="Path 1204" d="M2279.113,978.244a7.284,7.284,0,0,0-5.567-2.337c-4.192.138-8.086,2.7-7.636,9.278,0,0-6.314,1.924-16.143-7.422,0,0-3.161,5.154,2.428,10.011a5.215,5.215,0,0,1-3.665-.733s-1.123,4.353,6.071,7.651c0,0-2.428.687-3.528,0,0,0,.641,4.628,7.1,5.727,0,0-3.321,3.3-11.179,3.207,0,0,16.34,8.362,27.669-2.383a23.075,23.075,0,0,0,6.968-17.913,7.216,7.216,0,0,0,3.8-3.322,14.869,14.869,0,0,1-4.261.71s2.978-1.858,3.207-4.056A9.084,9.084,0,0,1,2279.113,978.244Z" transform="translate(-2246.995 -975.903)" fill="#1d566e"/>
</svg>
