<svg xmlns="http://www.w3.org/2000/svg" xmlns:xlink="http://www.w3.org/1999/xlink" width="145.754" height="139.115" viewBox="0 0 145.754 139.115">
  <defs>
    <clipPath id="clip-path">
      <circle id="Ellipse_49" data-name="Ellipse 49" cx="25.755" cy="25.755" r="25.755" fill="none"/>
    </clipPath>
    <clipPath id="clip-path-2">
      <path id="Path_999" data-name="Path 999" d="M2614.154-2884.688a22.927,22.927,0,0,1-22.929,22.928,22.926,22.926,0,0,1-22.927-22.928,22.929,22.929,0,0,1,22.927-22.93A22.929,22.929,0,0,1,2614.154-2884.688Z" transform="translate(-2568.297 2907.618)" fill="none"/>
    </clipPath>
    <clipPath id="clip-path-3">
      <circle id="Ellipse_50" data-name="Ellipse 50" cx="15.294" cy="15.294" r="15.294" fill="none"/>
    </clipPath>
    <clipPath id="clip-path-4">
      <path id="Path_1002" data-name="Path 1002" d="M2661.079-2748.318a13.614,13.614,0,0,1-13.615,13.615,13.615,13.615,0,0,1-13.616-13.615,13.617,13.617,0,0,1,13.616-13.617A13.616,13.616,0,0,1,2661.079-2748.318Z" transform="translate(-2633.848 2761.935)" fill="none"/>
    </clipPath>
    <clipPath id="clip-path-5">
      <circle id="Ellipse_51" data-name="Ellipse 51" cx="40.631" cy="40.631" r="40.631" fill="none"/>
    </clipPath>
    <clipPath id="clip-path-6">
      <path id="Path_1005" data-name="Path 1005" d="M2727.778-2851.59a36.17,36.17,0,0,1-36.174,36.171,36.17,36.17,0,0,1-36.172-36.171,36.174,36.174,0,0,1,36.172-36.176A36.174,36.174,0,0,1,2727.778-2851.59Z" transform="translate(-2655.432 2887.766)" fill="none"/>
    </clipPath>
  </defs>
  <g id="Group_244" data-name="Group 244" transform="translate(-2564.573 2901.043)">
    <rect id="Rectangle_81" data-name="Rectangle 81" width="5.312" height="84.891" transform="translate(2589.999 -2871.826) rotate(-67.983)" fill="#21aaa4"/>
    <g id="Group_235" data-name="Group 235" transform="translate(2564.573 -2901.043)">
      <g id="Group_234" data-name="Group 234" clip-path="url(#clip-path)">
        <path id="Path_998" data-name="Path 998" d="M2616.082-2875.288a25.751,25.751,0,0,1-25.754,25.754,25.752,25.752,0,0,1-25.753-25.754,25.755,25.755,0,0,1,25.753-25.755A25.754,25.754,0,0,1,2616.082-2875.288Z" transform="translate(-2564.573 2901.044)" fill="#21aaa4"/>
        <g id="Group_233" data-name="Group 233" transform="translate(2.826 -4.989)">
          <g id="Group_232" data-name="Group 232" clip-path="url(#clip-path-2)">
            <g id="Group_139" data-name="Group 139" transform="translate(8.55 15.858)">
              <g id="Group_136" data-name="Group 136" transform="translate(6.354)">
                <path id="Path_472" data-name="Path 472" d="M2604-2878.77v.409a3.305,3.305,0,0,1-.032.406c-.019.2-.047.4-.082.6s-.086.425-.139.634a7.95,7.95,0,0,1-.4,1.157l-.072.159c-.09.187-.18.367-.279.545l-.089.159a7.96,7.96,0,0,1-1.35,1.7l-.153.139c-.086.08-.177.156-.266.231l-.181.146c-.136.1-.275.206-.415.317l-.064.041c-.188.125-.383.241-.581.352q-.27.148-.552.276h-.031a8.074,8.074,0,0,1-1.153.412l-.258.067a8.014,8.014,0,0,1-1.229.193l-.405.022h-.409l-.408-.022a8.017,8.017,0,0,1-1.229-.193l-.257-.067a7.878,7.878,0,0,1-1.15-.412h-.035c-.168-.076-.317-.158-.495-.244-.215-.118-.431-.248-.634-.383l-.063-.041a3.942,3.942,0,0,1-.416-.317l-.18-.146c-.093-.076-.181-.152-.266-.231s-.193-.177-.285-.269a7.884,7.884,0,0,1-1.217-1.569c-.032-.051-.064-.1-.092-.159-.1-.177-.193-.358-.278-.545l-.07-.159a8.169,8.169,0,0,1-.405-1.157,6.462,6.462,0,0,1-.136-.634c-.035-.216-.063-.393-.082-.593,0-.134-.026-.266-.032-.406s0-.273,0-.409v-.656h0c0-.051.026-.1.029-.156s.019-.1.026-.149c.019-.149.044-.3.069-.444.038-.212.086-.424.14-.634a7.8,7.8,0,0,1,.408-1.156l.035-.079.035-.08c.086-.184.181-.364.279-.542.029-.054.061-.1.092-.159a8.066,8.066,0,0,1,1.35-1.7l.152-.14c.086-.079.178-.155.266-.231l.181-.146c.133-.1.272-.206.415-.317l.064-.041a7.8,7.8,0,0,1,1.128-.634h.035a7.8,7.8,0,0,1,1.151-.415l.257-.063a7.649,7.649,0,0,1,1.229-.194c.133,0,.271-.019.408-.022h.408a2.486,2.486,0,0,1,.406.022,7.654,7.654,0,0,1,1.229.194l.257.063a7.942,7.942,0,0,1,1.154.415h.032a7.9,7.9,0,0,1,1.128.634l.064.041a4.191,4.191,0,0,1,.415.317l.181.146c.089.077.18.153.266.231l.149.14a7.914,7.914,0,0,1,1.353,1.7l.089.159q.151.267.279.542l.073.161a7.987,7.987,0,0,1,.4,1.157c.054.206.1.418.139.634s.064.393.083.593a.767.767,0,0,0,.015.187,1.011,1.011,0,0,1,0,.216C2604-2879.043,2604-2878.906,2604-2878.77Z" transform="translate(-2587.983 2886.721)" fill="#fff"/>
                <path id="Path_473" data-name="Path 473" d="M2588.079-2877.14m-.142-.072h.022a.816.816,0,0,0,.124.063h-.025Z" transform="translate(-2587.937 2884.428)" fill="#fff"/>
                <path id="Path_474" data-name="Path 474" d="M2587.937-2877.213l.118.057-.1-.048Z" transform="translate(-2587.937 2884.428)" fill="#fff"/>
                <path id="Path_475" data-name="Path 475" d="M2588.133-2877.112" transform="translate(-2587.984 2884.404)" fill="#fff"/>
              </g>
              <g id="Group_138" data-name="Group 138" transform="translate(0 15.939)">
                <g id="Group_137" data-name="Group 137">
                  <path id="Path_476" data-name="Path 476" d="M2608.32-2857.341v8.924c0,.184-.073.143-.251.143h-28.16c-.177,0-.345.041-.345-.143v-9.352a8.728,8.728,0,0,1,2.284-5.5l.121-.127a8.325,8.325,0,0,1,2.295-1.692l.156-.076c.237-.112.478-.209.726-.3l.165-.057c.222-.073.45-.136.675-.19q.423.4.874.761a11.932,11.932,0,0,0,2.516,1.508c.172.077.339.143.51.212a11.317,11.317,0,0,0,2.025.574,11.311,11.311,0,0,0,2.063.187,11.285,11.285,0,0,0,2.345-.27c.095-.022,1.451-.351,1.816-.494.142-.057.285-.181.43-.244a5.737,5.737,0,0,0,1.981-1.191h0a.378.378,0,0,0,.2-.1,11.742,11.742,0,0,0,1.172-.951,8.489,8.489,0,0,1,6.379,7.954A2.43,2.43,0,0,1,2608.32-2857.341Z" transform="translate(-2579.564 2865.717)" fill="#fff"/>
                  <path id="Path_477" data-name="Path 477" d="M2591.713-2863.2a11.922,11.922,0,0,1-2.516-1.508,11.96,11.96,0,0,0,2.51,1.508c.171.077.342.146.517.212a11.265,11.265,0,0,0,2.025.574" transform="translate(-2581.887 2865.473)" fill="#fff"/>
                </g>
              </g>
            </g>
          </g>
        </g>
        <path id="Path_1000" data-name="Path 1000" d="M2559.015-2877.583c0,16.551,24.984,55.595,29.972,55.595v-85.566A29.972,29.972,0,0,0,2559.015-2877.583Z" transform="translate(-2563.233 2902.614)" fill="#fff" opacity="0.1"/>
      </g>
    </g>
    <rect id="Rectangle_82" data-name="Rectangle 82" width="75.978" height="5.312" transform="matrix(0.512, -0.859, 0.859, 0.512, 2628.481, -2778.581)" fill="#21aaa4"/>
    <g id="Group_239" data-name="Group 239" transform="translate(2615.466 -2792.515)">
      <g id="Group_238" data-name="Group 238" clip-path="url(#clip-path-3)">
        <path id="Path_1001" data-name="Path 1001" d="M2662.224-2742.736a15.292,15.292,0,0,1-15.294,15.292,15.292,15.292,0,0,1-15.293-15.292,15.294,15.294,0,0,1,15.293-15.294A15.294,15.294,0,0,1,2662.224-2742.736Z" transform="translate(-2631.637 2758.031)" fill="#21aaa4"/>
        <g id="Group_237" data-name="Group 237" transform="translate(1.678 -2.963)">
          <g id="Group_236" data-name="Group 236" clip-path="url(#clip-path-4)">
            <g id="Group_139-2" data-name="Group 139" transform="translate(5.078 9.418)">
              <g id="Group_136-2" data-name="Group 136" transform="translate(3.773)">
                <path id="Path_472-2" data-name="Path 472" d="M2655.051-2744.8v.243a1.968,1.968,0,0,1-.019.241c-.011.118-.028.237-.049.354s-.051.252-.083.376a4.807,4.807,0,0,1-.239.687l-.043.094c-.052.111-.107.218-.166.323l-.052.095a4.767,4.767,0,0,1-.8,1.009l-.09.083c-.051.047-.105.092-.158.137l-.107.086c-.082.062-.164.122-.247.188l-.038.024c-.111.074-.227.143-.345.209s-.216.113-.328.164h-.019a4.748,4.748,0,0,1-.685.244l-.152.039a4.732,4.732,0,0,1-.73.115l-.241.013h-.243l-.243-.013a4.729,4.729,0,0,1-.73-.115l-.153-.039a4.72,4.72,0,0,1-.683-.244h-.02c-.1-.045-.189-.094-.294-.145-.128-.07-.256-.147-.376-.228l-.038-.024a2.4,2.4,0,0,1-.247-.188l-.107-.086c-.055-.046-.107-.091-.158-.137s-.115-.105-.17-.16a4.722,4.722,0,0,1-.723-.931c-.019-.031-.037-.062-.055-.095-.06-.105-.115-.212-.165-.323l-.041-.094a4.847,4.847,0,0,1-.241-.687c-.032-.122-.06-.249-.08-.376s-.038-.234-.049-.352c0-.079-.015-.158-.019-.24s0-.163,0-.243v-.39h0c0-.03.015-.06.017-.092s.012-.061.015-.089c.012-.088.027-.177.042-.263.022-.126.051-.252.083-.376a4.633,4.633,0,0,1,.242-.687l.021-.047.021-.047c.051-.109.107-.216.166-.322.017-.032.035-.062.054-.094a4.768,4.768,0,0,1,.8-1.009l.091-.083c.051-.047.1-.093.158-.137l.107-.087c.079-.062.162-.122.247-.187l.038-.025a4.568,4.568,0,0,1,.669-.375h.021a4.572,4.572,0,0,1,.683-.247l.153-.038a4.543,4.543,0,0,1,.73-.115c.079,0,.162-.011.243-.013h.242a1.509,1.509,0,0,1,.24.013,4.557,4.557,0,0,1,.73.115l.152.038a4.671,4.671,0,0,1,.685.247h.019a4.589,4.589,0,0,1,.67.375l.037.025a2.544,2.544,0,0,1,.247.188l.107.087c.053.045.108.09.159.137l.089.083a4.693,4.693,0,0,1,.8,1.009l.053.094c.06.106.114.213.165.322l.043.1a4.752,4.752,0,0,1,.239.687c.032.122.06.248.083.376s.037.234.049.352a.448.448,0,0,0,.009.111.594.594,0,0,1,0,.128C2655.049-2744.966,2655.051-2744.885,2655.051-2744.8Z" transform="translate(-2645.538 2749.525)" fill="#fff"/>
                <path id="Path_473-2" data-name="Path 473" d="M2645.6-2743.836m-.084-.043h.013a.5.5,0,0,0,.073.038h-.015Z" transform="translate(-2645.511 2748.164)" fill="#fff"/>
                <path id="Path_474-2" data-name="Path 474" d="M2645.511-2743.879l.07.033-.057-.028Z" transform="translate(-2645.511 2748.164)" fill="#fff"/>
                <path id="Path_475-2" data-name="Path 475" d="M2645.628-2743.82" transform="translate(-2645.539 2748.149)" fill="#fff"/>
              </g>
              <g id="Group_138-2" data-name="Group 138" transform="translate(0 9.465)">
                <g id="Group_137-2" data-name="Group 137">
                  <path id="Path_476-2" data-name="Path 476" d="M2657.615-2732.079v5.3c0,.109-.043.084-.149.084h-16.722c-.106,0-.205.025-.205-.084v-5.553a5.183,5.183,0,0,1,1.357-3.265l.071-.075a4.958,4.958,0,0,1,1.363-1l.093-.045c.14-.066.284-.125.43-.177l.1-.034c.132-.042.268-.081.4-.112.168.159.341.31.519.451a7.109,7.109,0,0,0,1.494.9c.1.045.2.085.3.126a6.682,6.682,0,0,0,1.2.341,6.683,6.683,0,0,0,1.225.111,6.751,6.751,0,0,0,1.393-.159c.056-.014.861-.209,1.079-.293.084-.034.169-.108.255-.145a3.409,3.409,0,0,0,1.176-.708h0a.219.219,0,0,0,.12-.06,6.869,6.869,0,0,0,.7-.564,5.041,5.041,0,0,1,3.788,4.723A1.474,1.474,0,0,1,2657.615-2732.079Z" transform="translate(-2640.539 2737.053)" fill="#fff"/>
                  <path id="Path_477-2" data-name="Path 477" d="M2647.753-2735.556a7.033,7.033,0,0,1-1.493-.9,7.073,7.073,0,0,0,1.49.9c.1.045.2.086.307.126a6.7,6.7,0,0,0,1.2.341" transform="translate(-2641.919 2736.908)" fill="#fff"/>
                </g>
              </g>
            </g>
          </g>
        </g>
        <path id="Path_1003" data-name="Path 1003" d="M2628.337-2744.1c0,9.828,14.835,33.013,17.8,33.013V-2761.9A17.8,17.8,0,0,0,2628.337-2744.1Z" transform="translate(-2630.841 2758.963)" fill="#fff" opacity="0.1"/>
      </g>
    </g>
    <g id="Group_243" data-name="Group 243" transform="translate(2629.065 -2883.096)">
      <g id="Group_242" data-name="Group 242" clip-path="url(#clip-path-5)">
        <path id="Path_1004" data-name="Path 1004" d="M2730.819-2836.76a40.626,40.626,0,0,1-40.631,40.629,40.626,40.626,0,0,1-40.629-40.629,40.631,40.631,0,0,1,40.629-40.633A40.631,40.631,0,0,1,2730.819-2836.76Z" transform="translate(-2649.558 2877.393)" fill="#21aaa4"/>
        <g id="Group_241" data-name="Group 241" transform="translate(4.458 -7.872)">
          <g id="Group_240" data-name="Group 240" clip-path="url(#clip-path-6)">
            <g id="Group_139-3" data-name="Group 139" transform="translate(13.489 25.018)">
              <g id="Group_136-3" data-name="Group 136" transform="translate(10.024)">
                <path id="Path_472-3" data-name="Path 472" d="M2711.761-2842.255v.645a5.266,5.266,0,0,1-.05.64c-.03.315-.074.63-.129.939s-.136.671-.22,1a12.658,12.658,0,0,1-.634,1.824l-.115.25c-.14.3-.285.58-.439.86l-.14.25a12.608,12.608,0,0,1-2.13,2.68l-.24.22c-.136.125-.279.244-.42.365l-.285.23c-.215.165-.435.325-.656.5l-.1.065q-.445.294-.915.555c-.285.155-.575.3-.871.435h-.05a12.7,12.7,0,0,1-1.82.65l-.405.1a12.611,12.611,0,0,1-1.939.3l-.64.035h-.645l-.644-.035a12.608,12.608,0,0,1-1.94-.3l-.405-.1a12.464,12.464,0,0,1-1.815-.65h-.055c-.265-.12-.5-.25-.78-.385-.341-.185-.68-.39-1-.6l-.1-.065a6.184,6.184,0,0,1-.656-.5l-.284-.23c-.145-.121-.284-.24-.42-.365s-.305-.28-.451-.425a12.474,12.474,0,0,1-1.92-2.475c-.05-.08-.1-.165-.145-.25-.16-.28-.305-.564-.439-.86l-.11-.25a12.894,12.894,0,0,1-.64-1.824c-.085-.325-.159-.66-.215-1s-.1-.62-.129-.935c0-.209-.041-.42-.05-.64s0-.43,0-.645v-1.035h0c0-.08.04-.16.045-.245s.031-.159.04-.234c.031-.235.07-.47.11-.7.06-.335.136-.67.22-1a12.18,12.18,0,0,1,.644-1.825l.054-.125.056-.124c.135-.291.284-.575.439-.855.044-.085.095-.165.145-.25a12.655,12.655,0,0,1,2.13-2.679l.241-.22c.135-.125.279-.244.419-.365l.285-.23c.209-.165.429-.325.656-.5l.1-.064a12.264,12.264,0,0,1,1.78-1h.055a12.141,12.141,0,0,1,1.815-.655l.405-.1a12.11,12.11,0,0,1,1.939-.3c.209,0,.43-.03.645-.035h.644a3.9,3.9,0,0,1,.64.035,12.133,12.133,0,0,1,1.94.3l.405.1a12.477,12.477,0,0,1,1.82.655h.05a12.477,12.477,0,0,1,1.78,1l.1.064a6.869,6.869,0,0,1,.656.5l.284.23c.141.121.285.24.42.365l.235.22a12.466,12.466,0,0,1,2.135,2.679l.14.25c.16.28.305.565.439.855l.115.255a12.526,12.526,0,0,1,.635,1.824c.085.325.16.66.219,1s.1.62.129.935a1.179,1.179,0,0,0,.024.294,1.582,1.582,0,0,1,0,.34C2711.756-2842.684,2711.761-2842.469,2711.761-2842.255Z" transform="translate(-2686.489 2854.798)" fill="#fff"/>
                <path id="Path_473-3" data-name="Path 473" d="M2686.641-2839.683m-.225-.115h.036a1.178,1.178,0,0,0,.2.1h-.04Z" transform="translate(-2686.416 2851.181)" fill="#fff"/>
                <path id="Path_474-3" data-name="Path 474" d="M2686.416-2839.8l.186.091-.15-.075Z" transform="translate(-2686.416 2851.181)" fill="#fff"/>
                <path id="Path_475-3" data-name="Path 475" d="M2686.727-2839.639" transform="translate(-2686.491 2851.143)" fill="#fff"/>
              </g>
              <g id="Group_138-3" data-name="Group 138" transform="translate(0 25.146)">
                <g id="Group_137-3" data-name="Group 137">
                  <path id="Path_476-3" data-name="Path 476" d="M2718.573-2808.447v14.079c0,.29-.115.226-.4.226h-44.427c-.279,0-.544.064-.544-.226v-14.754a13.769,13.769,0,0,1,3.6-8.675l.19-.2a13.129,13.129,0,0,1,3.62-2.67l.246-.121c.374-.175.754-.33,1.144-.47l.26-.09c.351-.115.71-.215,1.065-.3q.668.638,1.379,1.2a18.8,18.8,0,0,0,3.97,2.38c.269.121.534.226.8.336a17.821,17.821,0,0,0,3.194.9,17.889,17.889,0,0,0,3.254.3,17.914,17.914,0,0,0,3.7-.425c.15-.035,2.29-.555,2.865-.78.225-.09.451-.285.68-.385a9.049,9.049,0,0,0,3.125-1.88h0a.587.587,0,0,0,.32-.16,18.4,18.4,0,0,0,1.851-1.5,13.394,13.394,0,0,1,10.063,12.55A3.826,3.826,0,0,1,2718.573-2808.447Z" transform="translate(-2673.207 2821.662)" fill="#fff"/>
                  <path id="Path_477-3" data-name="Path 477" d="M2692.375-2817.686a18.741,18.741,0,0,1-3.969-2.379,18.817,18.817,0,0,0,3.959,2.379c.27.121.54.23.815.335a17.821,17.821,0,0,0,3.195.9" transform="translate(-2676.872 2821.277)" fill="#fff"/>
                </g>
              </g>
            </g>
          </g>
        </g>
        <path id="Path_1006" data-name="Path 1006" d="M2640.789-2840.383c0,26.112,39.414,87.708,47.284,87.708v-134.992A47.286,47.286,0,0,0,2640.789-2840.383Z" transform="translate(-2647.443 2879.871)" fill="#fff" opacity="0.1"/>
      </g>
    </g>
  </g>
</svg>
