<svg xmlns="http://www.w3.org/2000/svg" width="116.182" height="114.244" viewBox="0 0 116.182 114.244">
  <g id="Group_722" data-name="Group 722" transform="translate(-1448.001 -1582.874)">
    <g id="Group_225" data-name="Group 225" transform="translate(1502.779 1635.714)">
      <path id="Path_984" data-name="Path 984" d="M3242.886-3989.666h-49.263a6.07,6.07,0,0,1-6.071-6.07V-4045a6.072,6.072,0,0,1,6.072-6.072h49.262a6.07,6.07,0,0,1,6.071,6.07v49.264A6.07,6.07,0,0,1,3242.886-3989.666Z" transform="translate(-3187.552 4051.07)" fill="#2ab7a9"/>
    </g>
    <g id="Group_721" data-name="Group 721">
      <path id="Path_989" data-name="Path 989" d="M3038.642-3615.309a34.728,34.728,0,0,1,8.177,4.319l7.646-3.881,9.057,10.918-5.226,6.8a34.8,34.8,0,0,1,2.734,8.835l8.146,2.661-1.316,14.125-8.5,1.11a34.776,34.776,0,0,1-4.32,8.177l3.881,7.646L3048-3545.547l-6.8-5.226a34.722,34.722,0,0,1-8.834,2.734l-2.662,8.147-14.124-1.316-1.11-8.5a34.75,34.75,0,0,1-8.178-4.32l-7.646,3.881-9.057-10.918,5.227-6.8a34.762,34.762,0,0,1-2.733-8.834l-8.148-2.661,1.317-14.125,8.5-1.109a34.73,34.73,0,0,1,4.32-8.178l-3.882-7.645,10.918-9.057,6.8,5.227a34.732,34.732,0,0,1,8.834-2.733l2.662-8.148,14.125,1.316,1.11,8.5Zm-10.028,17.709a15.22,15.22,0,0,0-16.625,14.712,15.291,15.291,0,0,0,12.839,15.473,15.219,15.219,0,0,0,17.525-13.621A15.217,15.217,0,0,0,3028.614-3597.6Z" transform="translate(-1535.942 5207.998)" fill="#21aba5" fill-rule="evenodd"/>
      <path id="Path_986" data-name="Path 986" d="M3206.527-4036.161a4.065,4.065,0,0,0-4.066,4.066v43.842a4.066,4.066,0,0,0,4.066,4.066h43.842a4.066,4.066,0,0,0,4.066-4.066v-43.841a4.067,4.067,0,0,0-4.067-4.067Z" transform="translate(-1694.967 5676.59)" fill="#fff"/>
      <g id="Group_226" data-name="Group 226" transform="translate(1513.979 1645.122)">
        <path id="Path_987" data-name="Path 987" d="M3255.325-3967.4a4.7,4.7,0,0,1-3.32-1.374l-8.989-8.984a4.7,4.7,0,0,1,0-6.642,4.7,4.7,0,0,1,6.641,0l4.757,4.757,13.642-22.455a4.7,4.7,0,0,1,6.451-1.577,4.7,4.7,0,0,1,1.571,6.453l-16.742,27.565a4.685,4.685,0,0,1-3.449,2.225A4.753,4.753,0,0,1,3255.325-3967.4Z" transform="translate(-3239.699 4006.299)" fill="#2ab7a9"/>
        <path id="Path_988" data-name="Path 988" d="M3249.278-3971.5a6.691,6.691,0,0,1-4.694-1.943l-8.989-8.985a6.648,6.648,0,0,1,0-9.391,6.65,6.65,0,0,1,9.388,0l3.009,3.009,12.357-20.339a6.65,6.65,0,0,1,9.116-2.231,6.6,6.6,0,0,1,3.006,4.1,6.589,6.589,0,0,1-.78,5.025l-16.741,27.563a6.589,6.589,0,0,1-4.877,3.145A6.668,6.668,0,0,1,3249.278-3971.5Zm-8.989-18.375a2.742,2.742,0,0,0-1.945.8,2.757,2.757,0,0,0,0,3.895l8.989,8.984a2.776,2.776,0,0,0,1.946.805,2.749,2.749,0,0,0,.329-.02,2.727,2.727,0,0,0,2.02-1.3l16.744-27.568a2.73,2.73,0,0,0,.324-2.083,2.741,2.741,0,0,0-1.245-1.7,2.756,2.756,0,0,0-3.778.922l-14.929,24.573-6.508-6.508A2.748,2.748,0,0,0,3240.289-3989.879Z" transform="translate(-3233.653 4012.345)" fill="#fff"/>
      </g>
    </g>
  </g>
</svg>
