<svg xmlns="http://www.w3.org/2000/svg" xmlns:xlink="http://www.w3.org/1999/xlink" width="487.226" height="514.177" viewBox="0 0 487.226 514.177">
  <defs>
    <radialGradient id="radial-gradient" cx="0.5" cy="0.5" r="0.54" gradientTransform="matrix(0.982, -0.188, 0.148, 0.776, -0.065, 0.206)" gradientUnits="objectBoundingBox">
      <stop offset="0" stop-color="#21aba5" stop-opacity="0.6"/>
      <stop offset="0.569" stop-color="#32b1ae" stop-opacity="0.6"/>
      <stop offset="1" stop-color="#87ceda" stop-opacity="0"/>
    </radialGradient>
  </defs>
  <g id="Group_789" data-name="Group 789" transform="translate(-2251.498 -303.322)">
    <g id="Tro1" transform="translate(2251.498 369.639)">
      <path id="Path_2788" data-name="Path 2788" d="M1671.317-1356.564c0,17.631-108.167,31.925-241.6,31.925s-241.6-14.295-241.6-31.925,108.168-31.925,241.6-31.925S1671.317-1374.2,1671.317-1356.564Z" transform="matrix(0.995, 0.105, -0.105, 0.995, -1320.073, 1590.542)" opacity="0.7" fill="url(#radial-gradient)" style="mix-blend-mode: multiply;isolation: isolate"/>
      <g id="Group_157" data-name="Group 157" transform="translate(-4690.269 1531.894) rotate(7)">
        <g id="Group_159" data-name="Group 159">
          <g id="Group_157-2" data-name="Group 157">
            <path id="Path_523" data-name="Path 523" d="M4842.753-2100.2c0-4.3-2.468-7.79-5.508-7.79h47.57c3.041,0,5.508,3.484,5.508,7.79s-2.467,7.79-5.508,7.79h-47.57C4840.286-2092.41,4842.753-2095.9,4842.753-2100.2Z" fill="#1d566e"/>
          </g>
          <g id="Group_158" data-name="Group 158">
            <path id="Path_524" data-name="Path 524" d="M4842.753-2100.2c0,4.306-2.465,7.79-5.508,7.79s-5.51-3.488-5.51-7.79,2.467-7.79,5.51-7.79S4842.753-2104.509,4842.753-2100.2Z" fill="#164153"/>
          </g>
        </g>
        <path id="Path_525" data-name="Path 525" d="M4798.683-2100.129c0,2.787,1.6,5.043,3.568,5.043h31.508c1.965,0,3.565-2.258,3.565-5.043s-1.6-5.045-3.565-5.045h-31.508C4800.282-2105.174,4798.683-2102.916,4798.683-2100.129Z" fill="#d1cdd5"/>
        <g id="Group_163" data-name="Group 163">
          <g id="Group_161" data-name="Group 161">
            <path id="Path_526" data-name="Path 526" d="M4756.6-2100.2c0-4.3-2.467-7.79-5.508-7.79h47.57c3.041,0,5.508,3.484,5.508,7.79s-2.467,7.79-5.508,7.79h-47.57C4754.133-2092.409,4756.6-2095.9,4756.6-2100.2Z" fill="#1d566e"/>
          </g>
          <g id="Group_162" data-name="Group 162">
            <ellipse id="Ellipse_24" data-name="Ellipse 24" cx="5.509" cy="7.791" rx="5.509" ry="7.791" transform="translate(4745.582 -2107.99)" fill="#164153"/>
          </g>
        </g>
        <path id="Path_527" data-name="Path 527" d="M4812.921-2095.086c.025.331.106,1.4.192,2.547l.26,3.437c.055.714,2.07,1.142,4.511.959s4.37-.913,4.317-1.627l-.26-3.435-.143-1.881s-.214-1.143-2.051-1.255S4816.372-2095.086,4812.921-2095.086Z" fill="#d1cdd5"/>
        <path id="Path_528" data-name="Path 528" d="M4818.153-2084.668c3.239-.245,5.806-1.213,5.733-2.161l-.143-1.907c-.078-.951-2.767-1.522-6-1.277s-5.806,1.215-5.733,2.163l.143,1.907C4812.228-2085,4814.914-2084.423,4818.153-2084.668Z" fill="#e5e3e8"/>
        <path id="Path_529" data-name="Path 529" d="M4819.443-2067.6c2.439-.185,4.37-.915,4.315-1.627l-1.238-16.318c-.055-.714-2.073-1.142-4.511-.959s-4.37.913-4.317,1.627l1.235,16.316C4814.98-2067.845,4817-2067.413,4819.443-2067.6Z" fill="#d1cdd5"/>
        <path id="Path_530" data-name="Path 530" d="M4815.218-2050.575h0c1.383,18.3,13.388,177.025,13.514,178.687.059.807,2.559,1.276,5.587,1.047s5.427-1.067,5.367-1.874c-.126-1.662-12.131-160.393-13.514-178.687l-2.419-17.822c-.053-.714-2.075-1.146-4.511-.961s-4.37.913-4.315,1.627Z" fill="#1d566e"/>
        <path id="Path_531" data-name="Path 531" d="M4697.985-1750.4l-48.754-5.245a3.183,3.183,0,0,0-.338-.018,3.113,3.113,0,0,0-3.108,3.118h0a3.116,3.116,0,0,0,2.781,3.1l49.42,5.316a50.01,50.01,0,0,0,5.333.284h6.665a3.128,3.128,0,0,0,3.127-3.129h0v0a3.129,3.129,0,0,0-3.129-3.127h-6.663A50.039,50.039,0,0,1,4697.985-1750.4Z" fill="#19807c"/>
        <g id="Group_165" data-name="Group 165">
          <path id="Path_532" data-name="Path 532" d="M4599.188-1772.838h12.242l10.168-17.3h-12.246Z" fill="#19807c"/>
          <path id="Path_533" data-name="Path 533" d="M4609.176-1772.837l4.579,1.31a4.3,4.3,0,0,0,5.186-2.564c1.625-4.129,5.107-10.621,11.664-13.584a23.366,23.366,0,0,0-8.255-1.576,25.018,25.018,0,0,0-4,.313C4612.458-1783.946,4610.176-1776.935,4609.176-1772.837Z" fill="#21aba5"/>
        </g>
        <path id="Path_534" data-name="Path 534" d="M4660.165-1748.591h8.409a2.734,2.734,0,0,0,2.739-2.5c1.671-21.72-18.023-43.674-35.338-43.674h-12.2C4641.919-1794.765,4663.532-1771.173,4660.165-1748.591Z" fill="#4dbcb7"/>
        <g id="Group_170" data-name="Group 170">
          <g id="Group_169" data-name="Group 169">
            <g id="Group_168" data-name="Group 168">
              <g id="Group_166" data-name="Group 166">
                <path id="Path_535" data-name="Path 535" d="M4647.717-1752.226c0-16.252-9.312-29.431-20.812-29.431h9.4c11.5,0,20.812,13.177,20.812,29.431s-9.312,29.433-20.812,29.433h-9.4C4638.4-1722.793,4647.717-1735.974,4647.717-1752.226Z" fill="#164153"/>
              </g>
              <g id="Group_167" data-name="Group 167">
                <path id="Path_536" data-name="Path 536" d="M4647.716-1752.226c0,16.254-9.318,29.433-20.812,29.433s-20.81-13.181-20.81-29.433,9.316-29.431,20.81-29.431S4647.716-1768.48,4647.716-1752.226Z" fill="#1d566e"/>
              </g>
            </g>
          </g>
          <path id="Path_537" data-name="Path 537" d="M4624.908-1771.611c7.566,0,13.7,8.678,13.7,19.385s-6.134,19.385-13.7,19.385-13.7-8.678-13.7-19.385S4617.342-1771.611,4624.908-1771.611Z" fill="#e9e7eb"/>
          <ellipse id="Ellipse_25" data-name="Ellipse 25" cx="11.073" cy="15.756" rx="11.073" ry="15.756" transform="translate(4613.827 -1767.982)" fill="#d5d1d8"/>
          <path id="Path_538" data-name="Path 538" d="M4626.78-1765.581c5.083,0,9.2,5.98,9.2,13.355s-4.119,13.355-9.2,13.355-9.2-5.98-9.2-13.355S4621.7-1765.581,4626.78-1765.581Z" fill="#e9e7eb"/>
        </g>
        <path id="Path_539" data-name="Path 539" d="M4656.712-1748.854a4.244,4.244,0,0,1-3.9-4.368c.551-19.174-15.178-36.028-30.467-36.028a20.546,20.546,0,0,0-19.588,12.55,10.283,10.283,0,0,1-2.666,3.629l-.386.337a.874.874,0,0,1-.767.193.873.873,0,0,1-.657-1.046c1.841-7.978,7.534-21.178,25.5-21.178,18.144,0,39.756,23.592,36.389,46.179Z" fill="#6aefcf"/>
        <g id="Group_171" data-name="Group 171">
          <path id="Path_540" data-name="Path 540" d="M4624.909-1759.284c2.533,0,4.586,3.16,4.586,7.058s-2.053,7.058-4.586,7.058-4.586-3.158-4.586-7.058S4622.376-1759.284,4624.909-1759.284Z" fill="#d2c9d2"/>
          <path id="Path_541" data-name="Path 541" d="M4624.909-1745.168h2.189c2.531,0,4.584-3.16,4.584-7.058s-2.053-7.058-4.584-7.058h-2.186c2.533,0,4.586,3.158,4.586,7.058S4627.442-1745.168,4624.909-1745.168Z" fill="#beb1be"/>
        </g>
        <g id="Group_172" data-name="Group 172">
          <path id="Path_542" data-name="Path 542" d="M4643.785-1751.125l-19.919-4.112a3.05,3.05,0,0,0-.617-.063,3.067,3.067,0,0,0-3.07,3.063h0a3.065,3.065,0,0,0,2.447,3l21.158,4.368a49.9,49.9,0,0,0,10.081,1.027h169.22a7.96,7.96,0,0,0,7.746-6.112l8.553-35.8a7.255,7.255,0,0,0,.2-1.669v-.646a2.608,2.608,0,0,0-2.608-2.608H4819.79a5.433,5.433,0,0,0-3.947,1.7l-34.2,36.193a8.572,8.572,0,0,1-6.227,2.683H4653.87A49.875,49.875,0,0,1,4643.785-1751.125Z" fill="#45ebc3"/>
          <path id="Path_543" data-name="Path 543" d="M4817.625-1784.86l-35.69,38.089a9.269,9.269,0,0,1-6.765,2.93h47.916a7.96,7.96,0,0,0,7.746-6.112l8-33.479a2.567,2.567,0,0,0,.07-.592,2.551,2.551,0,0,0-2.55-2.552H4821.59A5.428,5.428,0,0,0,4817.625-1784.86Z" fill="#19807c"/>
        </g>
        <path id="Path_544" data-name="Path 544" d="M4840.017-1785.239a3.367,3.367,0,0,0-3.1,3.614l1.449,19.158a9.861,9.861,0,0,0,1.151,3.986l4.8,8.762c1.347,2.459,3.622,3.806,5.955,3.526l12.052-1.451c2.147-.257,3.719-2.694,3.51-5.439L4863.27-1787Z" fill="#19807c"/>
        <g id="Group_177" data-name="Group 177">
          <g id="Group_176" data-name="Group 176">
            <g id="Group_175" data-name="Group 175">
              <g id="Group_173" data-name="Group 173">
                <path id="Path_545" data-name="Path 545" d="M4860.167-1752.226c0-16.252-9.312-29.431-20.812-29.431h9.4c11.5,0,20.812,13.177,20.812,29.431s-9.312,29.433-20.812,29.433h-9.4C4850.852-1722.793,4860.167-1735.974,4860.167-1752.226Z" fill="#164153"/>
              </g>
              <g id="Group_174" data-name="Group 174">
                <path id="Path_546" data-name="Path 546" d="M4860.168-1752.226c0,16.254-9.32,29.433-20.812,29.433s-20.81-13.181-20.81-29.433,9.318-29.431,20.81-29.431S4860.168-1768.48,4860.168-1752.226Z" fill="#1d566e"/>
              </g>
            </g>
          </g>
          <ellipse id="Ellipse_26" data-name="Ellipse 26" cx="13.7" cy="19.385" rx="13.7" ry="19.385" transform="translate(4823.66 -1771.611)" fill="#e9e7eb"/>
          <ellipse id="Ellipse_27" data-name="Ellipse 27" cx="11.073" cy="15.756" rx="11.073" ry="15.756" transform="translate(4826.279 -1767.982)" fill="#d5d1d8"/>
          <path id="Path_547" data-name="Path 547" d="M4839.233-1765.581c5.081,0,9.2,5.98,9.2,13.355s-4.117,13.355-9.2,13.355-9.2-5.98-9.2-13.355S4834.152-1765.581,4839.233-1765.581Z" fill="#e9e7eb"/>
        </g>
        <path id="Path_548" data-name="Path 548" d="M4827.347-1871.264c.179,2.355,2.35,31.08,2.518,33.287.077,1.018,3.224,1.606,7.038,1.318s6.837-1.345,6.762-2.361c-.168-2.209-2.339-30.932-2.518-33.287-.077-1.018-3.226-1.607-7.04-1.318S4827.27-1872.28,4827.347-1871.264Z" fill="#4dbcb7"/>
        <path id="Path_549" data-name="Path 549" d="M4836.92-1836.509c4.826-.364,8.636-1.987,8.513-3.623l-.4-5.221c-.124-1.632-4.137-2.666-8.961-2.3s-8.636,1.989-8.513,3.625l.4,5.221C4828.077-1837.169,4832.094-1836.145,4836.92-1836.509Z" fill="#e5e3e8"/>
        <path id="Path_550" data-name="Path 550" d="M4829.865-1837.976c.179,2.354,2.747,36.336,2.915,38.543.077,1.021,3.224,1.61,7.038,1.321s6.839-1.348,6.762-2.364c-.168-2.209-2.739-36.188-2.915-38.543-.077-1.019-3.226-1.608-7.04-1.319S4829.788-1838.993,4829.865-1837.976Z" fill="#4dbcb7"/>
        <path id="Path_551" data-name="Path 551" d="M4826.785-1798.158a4.064,4.064,0,0,1,3.027-2.891,60.727,60.727,0,0,1,18.563-1.4,4.068,4.068,0,0,1,3.426,2.4l1.546,3.464-27.57,2.086Z" fill="#e5e3e8"/>
        <path id="Path_552" data-name="Path 552" d="M4817.526-1785.6l1.857,24.571a9.9,9.9,0,0,0,1.151,3.986l4.8,8.762c1.347,2.459,3.62,3.806,5.953,3.526l12.054-1.451c2.145-.258,3.717-2.7,3.51-5.44l-2.359-31.262v-.006a2.657,2.657,0,0,1,2.453-2.847l16.325-1.235-.152-2.006a5.32,5.32,0,0,0-3.038-4.412l-6.732-3.167s-3.566-.522-13.706.245-13.864,1.841-13.864,1.841l-5.964,4.116A5.314,5.314,0,0,0,4817.526-1785.6Z" fill="#4dbcb7"/>
        <g id="Group_178" data-name="Group 178">
          <path id="Path_553" data-name="Path 553" d="M4833.034-1758.391c2.211,0,4.006,2.758,4.006,6.165s-1.795,6.167-4.006,6.167-4.006-2.761-4.006-6.167S4830.823-1758.391,4833.034-1758.391Z" fill="#f3f1f3"/>
        </g>
      </g>
    </g>
    <g id="Wifi_Icon" data-name="Wifi Icon" transform="translate(2551.955 303.322)">
      <path id="Path_519" data-name="Path 519" d="M2803.214-1793.041a4.325,4.325,0,0,1-2.923-1.132c-7.367-6.715-15.1-8.8-22.981-6.187a27.42,27.42,0,0,0-9.929,5.987,4.34,4.34,0,0,1-6.136.121,4.339,4.339,0,0,1-.122-6.136,35.929,35.929,0,0,1,13.458-8.211c7.619-2.523,19.278-3.182,31.558,8.011a4.34,4.34,0,0,1,.283,6.131A4.329,4.329,0,0,1,2803.214-1793.041Z" transform="translate(-2735.194 1846.651)" fill="#45ebc3"/>
      <path id="Path_520" data-name="Path 520" d="M2804.515-1820.32a4.317,4.317,0,0,1-2.922-1.132c-12.8-11.666-26.318-15.312-40.182-10.837a47.8,47.8,0,0,0-17.732,10.645,4.345,4.345,0,0,1-6.133.1,4.335,4.335,0,0,1-.118-6.125,55.884,55.884,0,0,1,20.96-12.765c11.8-3.908,29.889-4.9,49.051,12.565a4.34,4.34,0,0,1,.284,6.131A4.328,4.328,0,0,1,2804.515-1820.32Z" transform="translate(-2724.181 1861.834)" fill="#45ebc3"/>
      <path id="Path_521" data-name="Path 521" d="M2806.1-1850.7a4.322,4.322,0,0,1-2.923-1.133c-18.119-16.516-37.305-21.638-57.026-15.225a67.416,67.416,0,0,0-24.962,15.031,4.343,4.343,0,0,1-6.134.108,4.337,4.337,0,0,1-.119-6.128,75.11,75.11,0,0,1,28.186-17.152c15.828-5.243,40.111-6.556,65.9,16.952a4.34,4.34,0,0,1,.283,6.131A4.329,4.329,0,0,1,2806.1-1850.7Z" transform="translate(-2713.725 1878.368)" fill="#45ebc3" opacity="0.54"/>
      <circle id="Ellipse_23" data-name="Ellipse 23" cx="5.606" cy="5.606" r="5.606" transform="translate(42.624 55.105)" fill="#45ebc3"/>
    </g>
  </g>
</svg>
