<svg xmlns="http://www.w3.org/2000/svg" width="109.366" height="109.366" viewBox="0 0 109.366 109.366">
  <g id="Group_247" data-name="Group 247" transform="translate(-1817.158 4540.862)">
    <g id="Group_245" data-name="Group 245" transform="translate(1834.061 -4523.958)">
      <path id="Path_1007" data-name="Path 1007" d="M1941.793-4408.756h-60.619a7.47,7.47,0,0,1-7.47-7.47v-60.618a7.471,7.471,0,0,1,7.471-7.471h60.617a7.469,7.469,0,0,1,7.47,7.469v60.619A7.47,7.47,0,0,1,1941.793-4408.756Z" transform="translate(-1873.704 4484.314)" fill="#2ab7a9"/>
    </g>
    <g id="Group_246" data-name="Group 246" transform="translate(1834.061 -4523.958)">
      <path id="Path_1008" data-name="Path 1008" d="M1941.793-4408.756h-60.619a7.47,7.47,0,0,1-7.47-7.47v-60.618a7.471,7.471,0,0,1,7.471-7.471h60.617a7.469,7.469,0,0,1,7.47,7.469v60.619A7.47,7.47,0,0,1,1941.793-4408.756Z" transform="translate(-1873.704 4484.314)" fill="#21aaa4"/>
    </g>
    <path id="Path_1009" data-name="Path 1009" d="M1953.366-4398.317H1906a6.343,6.343,0,0,1-6.336-6.336v-47.366a6.343,6.343,0,0,1,6.336-6.335h47.364a6.345,6.345,0,0,1,6.337,6.338v47.363A6.343,6.343,0,0,1,1953.366-4398.317ZM1906-4454.468a2.452,2.452,0,0,0-2.449,2.449v47.366a2.452,2.452,0,0,0,2.449,2.45h47.366a2.452,2.452,0,0,0,2.45-2.45v-47.363a2.454,2.454,0,0,0-2.451-2.452Z" transform="translate(-57.843 -57.843)" fill="#fff"/>
    <path id="Path_1010" data-name="Path 1010" d="M1881.175-4484.314a7.471,7.471,0,0,0-7.471,7.471v60.618a7.47,7.47,0,0,0,7.47,7.47h30.31v-75.558Z" transform="translate(-39.643 -39.643)" fill="#fff" opacity="0.1"/>
    <rect id="Rectangle_85" data-name="Rectangle 85" width="3.886" height="13.358" transform="translate(1869.898 -4537.316)" fill="#21aaa4"/>
    <rect id="Rectangle_86" data-name="Rectangle 86" width="3.886" height="13.358" transform="translate(1841.822 -4537.316)" fill="#21aaa4"/>
    <rect id="Rectangle_87" data-name="Rectangle 87" width="3.886" height="13.358" transform="translate(1897.973 -4537.316)" fill="#21aaa4"/>
    <circle id="Ellipse_52" data-name="Ellipse 52" cx="3.546" cy="3.546" r="3.546" transform="translate(1840.219 -4540.862)" fill="#21aaa4"/>
    <circle id="Ellipse_53" data-name="Ellipse 53" cx="3.546" cy="3.546" r="3.546" transform="translate(1868.295 -4540.862)" fill="#21aaa4"/>
    <circle id="Ellipse_54" data-name="Ellipse 54" cx="3.546" cy="3.546" r="3.546" transform="translate(1896.37 -4540.862)" fill="#21aaa4"/>
    <rect id="Rectangle_88" data-name="Rectangle 88" width="3.886" height="13.358" transform="translate(1869.897 -4448.399)" fill="#21aaa4"/>
    <rect id="Rectangle_89" data-name="Rectangle 89" width="3.886" height="13.358" transform="translate(1897.973 -4448.399)" fill="#21aaa4"/>
    <rect id="Rectangle_90" data-name="Rectangle 90" width="3.886" height="13.358" transform="translate(1841.822 -4448.399)" fill="#21aaa4"/>
    <circle id="Ellipse_55" data-name="Ellipse 55" cx="3.546" cy="3.546" r="3.546" transform="translate(1896.37 -4438.587)" fill="#21aaa4"/>
    <circle id="Ellipse_56" data-name="Ellipse 56" cx="3.546" cy="3.546" r="3.546" transform="translate(1868.295 -4438.587)" fill="#21aaa4"/>
    <circle id="Ellipse_57" data-name="Ellipse 57" cx="3.546" cy="3.546" r="3.546" transform="translate(1840.219 -4438.587)" fill="#21aaa4"/>
    <rect id="Rectangle_91" data-name="Rectangle 91" width="13.358" height="3.886" transform="translate(1820.704 -4488.122)" fill="#21aaa4"/>
    <rect id="Rectangle_92" data-name="Rectangle 92" width="13.358" height="3.886" transform="translate(1820.704 -4460.046)" fill="#21aaa4"/>
    <rect id="Rectangle_93" data-name="Rectangle 93" width="13.358" height="3.886" transform="translate(1820.704 -4516.197)" fill="#21aaa4"/>
    <circle id="Ellipse_58" data-name="Ellipse 58" cx="3.546" cy="3.546" r="3.546" transform="translate(1817.158 -4461.649)" fill="#21aaa4"/>
    <circle id="Ellipse_59" data-name="Ellipse 59" cx="3.546" cy="3.546" r="3.546" transform="translate(1817.158 -4489.725)" fill="#21aaa4"/>
    <circle id="Ellipse_60" data-name="Ellipse 60" cx="3.546" cy="3.546" r="3.546" transform="translate(1817.158 -4517.8)" fill="#21aaa4"/>
    <rect id="Rectangle_94" data-name="Rectangle 94" width="13.358" height="3.886" transform="translate(1909.62 -4488.122)" fill="#21aaa4"/>
    <rect id="Rectangle_95" data-name="Rectangle 95" width="13.358" height="3.886" transform="translate(1909.62 -4516.197)" fill="#21aaa4"/>
    <rect id="Rectangle_96" data-name="Rectangle 96" width="13.358" height="3.886" transform="translate(1909.62 -4460.046)" fill="#21aaa4"/>
    <circle id="Ellipse_61" data-name="Ellipse 61" cx="3.546" cy="3.546" r="3.546" transform="translate(1919.432 -4517.8)" fill="#21aaa4"/>
    <circle id="Ellipse_62" data-name="Ellipse 62" cx="3.546" cy="3.546" r="3.546" transform="translate(1919.432 -4489.725)" fill="#21aaa4"/>
    <circle id="Ellipse_63" data-name="Ellipse 63" cx="3.546" cy="3.546" r="3.546" transform="translate(1919.432 -4461.649)" fill="#21aaa4"/>
  </g>
</svg>
