<svg xmlns="http://www.w3.org/2000/svg" xmlns:xlink="http://www.w3.org/1999/xlink" width="136.783" height="122.676" viewBox="0 0 136.783 122.676">
  <defs>
    <clipPath id="clip-path">
      <path id="Path_980" data-name="Path 980" d="M2917.412-3202.106a18.142,18.142,0,0,1-18.144,18.143,18.142,18.142,0,0,1-18.143-18.143,18.144,18.144,0,0,1,18.143-18.144A18.144,18.144,0,0,1,2917.412-3202.106Z" transform="translate(-2881.126 3220.25)" fill="none"/>
    </clipPath>
  </defs>
  <g id="Group_224" data-name="Group 224" transform="translate(-2691.293 3341.667)">
    <path id="Path_973" data-name="Path 973" d="M2705.74-3358.553c0,11.66-17.6,39.166-21.115,39.166s-21.115-27.505-21.115-39.166a21.115,21.115,0,0,1,21.115-21.114A21.115,21.115,0,0,1,2705.74-3358.553Z" transform="translate(27.782 38)" fill="#21aaa4"/>
    <path id="Path_974" data-name="Path 974" d="M2708.567-3351.249a18.142,18.142,0,0,1-18.144,18.143,18.141,18.141,0,0,1-18.143-18.143,18.143,18.143,0,0,1,18.143-18.144A18.144,18.144,0,0,1,2708.567-3351.249Z" transform="translate(21.983 31.208)" fill="#fff"/>
    <g id="Group_220" data-name="Group 220" transform="translate(2713.931 -3279.633) rotate(-31)">
      <g id="Group_219" data-name="Group 219" transform="translate(0 0)">
        <g id="Group_216" data-name="Group 216">
          <path id="Path_975" data-name="Path 975" d="M.217,3.651,0,.953A.839.839,0,0,1,.8.049C1.416.016,2.057,0,2.713,0a.84.84,0,0,1,.843.856L3.5,3.562a.836.836,0,0,1-.833.819c-.542,0-1.07.013-1.579.039A.834.834,0,0,1,.217,3.651Z" fill="#21aaa4"/>
        </g>
        <g id="Group_217" data-name="Group 217" transform="translate(5.685 0.898)">
          <path id="Path_976" data-name="Path 976" d="M23.856,73.264q-.349,0-.7-.005a.84.84,0,0,1-.83-.866l.092-2.7a.838.838,0,0,1,.851-.808c.2,0,.409,0,.609,0,1.437,0,2.949-.07,4.506-.208a.839.839,0,0,1,.913.747l.278,2.692a.837.837,0,0,1-.754.921c-1.7.153-3.362.23-4.942.23ZM14,72.038a22.823,22.823,0,0,1-5.582-2.36.839.839,0,0,1-.265-1.184l1.5-2.255a.832.832,0,0,1,1.116-.258,18.48,18.48,0,0,0,4.35,1.822.834.834,0,0,1,.577,1l-.652,2.627A.841.841,0,0,1,14,72.038ZM36.7,71l-.545-2.651a.836.836,0,0,1,.645-.986c1.673-.363,3.374-.789,5.077-1.271a.837.837,0,0,1,1.034.567l.762,2.6A.839.839,0,0,1,43.1,70.3c-1.812.514-3.624.967-5.406,1.353A.837.837,0,0,1,36.7,71ZM50.475,66.97l-.962-2.529a.838.838,0,0,1,.481-1.078c1.668-.653,3.274-1.344,4.793-2.06a.838.838,0,0,1,1.113.389l1.184,2.433a.836.836,0,0,1-.391,1.122c-1.628.769-3.348,1.508-5.132,2.207A.838.838,0,0,1,50.475,66.97ZM1.784,62.477A20.046,20.046,0,0,1,.008,56.6a.84.84,0,0,1,.76-.949l2.7-.234a.832.832,0,0,1,.9.709,15.78,15.78,0,0,0,1.351,4.418.836.836,0,0,1-.376,1.1l-2.41,1.235A.842.842,0,0,1,1.784,62.477Zm2.465-13.5-2.583-.812a.839.839,0,0,1-.54-1.08,34.213,34.213,0,0,1,2.423-5.29A.84.84,0,0,1,4.7,41.467l2.342,1.357a.835.835,0,0,1,.314,1.125,29.975,29.975,0,0,0-2.075,4.507A.834.834,0,0,1,4.249,48.973ZM10.87,37.056l-2.179-1.6a.838.838,0,0,1-.174-1.177c1.019-1.361,2.142-2.789,3.405-4.333a.837.837,0,0,1,1.18-.114l2.086,1.723A.839.839,0,0,1,15.3,32.73c-1.214,1.484-2.292,2.854-3.267,4.156A.835.835,0,0,1,10.87,37.056Zm8.886-10.849L17.724,24.42a.837.837,0,0,1-.075-1.182h0c.016-.019.032-.038.047-.058a19.078,19.078,0,0,0,2.315-3.889.836.836,0,0,1,1.049-.465l2.554.9a.839.839,0,0,1,.5,1.112,23.352,23.352,0,0,1-2.992,5.076l-.1.128-.076.086A.838.838,0,0,1,19.756,26.207ZM20.1,12.463a10.036,10.036,0,0,0-2.742-3.191.836.836,0,0,1-.159-1.14l1.578-2.2a.842.842,0,0,1,1.2-.168,14.242,14.242,0,0,1,4.163,5,.838.838,0,0,1-.46,1.138l-2.536.975A.84.84,0,0,1,20.1,12.463Zm-9.9-6.85A39.834,39.834,0,0,0,5.3,4.325a.84.84,0,0,1-.669-.97L5.112.692A.837.837,0,0,1,6.092.015,44.213,44.213,0,0,1,11.655,1.48a.834.834,0,0,1,.511,1.076L11.246,5.1A.834.834,0,0,1,10.2,5.613Z" fill="#21aaa4"/>
        </g>
        <g id="Group_218" data-name="Group 218" transform="translate(67.443 56.934)">
          <path id="Path_977" data-name="Path 977" d="M1.663,4.488.144,2.248A.839.839,0,0,1,.351,1.1Q.992.635,1.524.192A.842.842,0,0,1,2.68.274L4.513,2.254a.835.835,0,0,1-.069,1.2q-.723.611-1.6,1.238A.841.841,0,0,1,1.663,4.488Z" fill="#21aaa4"/>
        </g>
      </g>
    </g>
    <path id="Path_978" data-name="Path 978" d="M2914.586-3186.941c0,11.66-17.6,39.166-21.115,39.166s-21.114-27.506-21.114-39.166a21.115,21.115,0,0,1,21.114-21.114A21.114,21.114,0,0,1,2914.586-3186.941Z" transform="translate(-86.51 -120.184)" fill="#21aaa4"/>
    <path id="Path_979" data-name="Path 979" d="M2917.412-3179.637a18.142,18.142,0,0,1-18.144,18.143,18.141,18.141,0,0,1-18.143-18.143,18.144,18.144,0,0,1,18.143-18.145A18.144,18.144,0,0,1,2917.412-3179.637Z" transform="translate(-92.308 -126.976)" fill="#fff"/>
    <g id="Group_222" data-name="Group 222" transform="translate(2788.818 -3332.372)">
      <g id="Group_221" data-name="Group 221" clip-path="url(#clip-path)">
        <g id="Group_139" data-name="Group 139" transform="translate(6.766 12.548)">
          <g id="Group_136" data-name="Group 136" transform="translate(5.028)">
            <path id="Path_472" data-name="Path 472" d="M2928.827-3176.929v.324a2.7,2.7,0,0,1-.025.321c-.016.158-.038.316-.065.471s-.068.336-.11.5a6.353,6.353,0,0,1-.318.915l-.058.126c-.07.148-.143.291-.221.431l-.07.126a6.327,6.327,0,0,1-1.068,1.344l-.121.11c-.068.063-.141.123-.211.183l-.143.115c-.108.083-.218.163-.329.251l-.05.033c-.148.1-.3.191-.459.278s-.289.15-.437.218h-.025a6.393,6.393,0,0,1-.913.326l-.2.052a6.369,6.369,0,0,1-.973.153l-.321.017h-.323l-.323-.017a6.346,6.346,0,0,1-.973-.153l-.2-.052a6.269,6.269,0,0,1-.91-.326h-.028c-.133-.06-.251-.125-.391-.193-.171-.093-.341-.2-.5-.3l-.05-.033a3.068,3.068,0,0,1-.329-.251l-.142-.115c-.073-.061-.143-.12-.211-.183s-.153-.14-.226-.213a6.3,6.3,0,0,1-.963-1.241c-.025-.041-.05-.083-.073-.126-.08-.14-.153-.283-.22-.431l-.055-.126a6.444,6.444,0,0,1-.321-.915c-.043-.163-.08-.331-.107-.5s-.05-.311-.065-.469c0-.105-.02-.211-.025-.321s0-.216,0-.324v-.519h0c0-.04.021-.08.022-.123s.016-.08.021-.118c.015-.118.035-.236.055-.351.03-.168.068-.336.11-.5a6.178,6.178,0,0,1,.323-.915l.028-.063.027-.063c.068-.146.143-.288.22-.429.023-.043.048-.083.073-.126a6.348,6.348,0,0,1,1.068-1.344l.121-.11c.068-.063.14-.123.21-.183l.143-.115c.105-.083.215-.163.329-.251l.05-.033a6.2,6.2,0,0,1,.893-.5h.028a6.151,6.151,0,0,1,.91-.328l.2-.05a6.124,6.124,0,0,1,.973-.153c.105,0,.215-.015.323-.018h.323a1.94,1.94,0,0,1,.32.018,6.116,6.116,0,0,1,.973.153l.2.05a6.3,6.3,0,0,1,.913.328h.025a6.249,6.249,0,0,1,.893.5l.05.033a3.332,3.332,0,0,1,.329.251l.143.115c.071.061.143.12.211.183l.118.11a6.245,6.245,0,0,1,1.07,1.344l.071.126c.081.14.153.283.22.429l.058.128a6.24,6.24,0,0,1,.318.916c.043.162.08.331.11.5s.05.311.064.469a.6.6,0,0,0,.012.148.764.764,0,0,1,0,.17C2928.824-3177.144,2928.827-3177.036,2928.827-3176.929Z" transform="translate(-2916.151 3183.22)" fill="#21aaa4"/>
            <path id="Path_473" data-name="Path 473" d="M2916.041-3166.312m-.113-.058h.018a.607.607,0,0,0,.1.05h-.02Z" transform="translate(-2915.928 3172.08)" fill="#21aaa4"/>
            <path id="Path_474" data-name="Path 474" d="M2915.928-3166.371l.093.045-.075-.037Z" transform="translate(-2915.928 3172.081)" fill="#21aaa4"/>
            <path id="Path_475" data-name="Path 475" d="M2916.277-3166.193" transform="translate(-2916.159 3171.963)" fill="#21aaa4"/>
          </g>
          <g id="Group_138" data-name="Group 138" transform="translate(0 12.612)">
            <g id="Group_137" data-name="Group 137">
              <path id="Path_476" data-name="Path 476" d="M2923.845-3139.373v7.062c0,.145-.057.113-.2.113h-22.283c-.14,0-.273.032-.273-.113v-7.4a6.909,6.909,0,0,1,1.808-4.351l.1-.1a6.582,6.582,0,0,1,1.815-1.339l.124-.06c.188-.088.378-.166.574-.236l.131-.045c.176-.057.356-.108.534-.15q.335.32.692.6a9.451,9.451,0,0,0,1.991,1.193c.135.06.268.113.4.168a8.941,8.941,0,0,0,1.6.454,9.013,9.013,0,0,0,1.632.148,9.014,9.014,0,0,0,1.855-.213c.075-.017,1.148-.278,1.437-.391.113-.045.226-.143.341-.193a4.54,4.54,0,0,0,1.567-.943h0a.3.3,0,0,0,.16-.08,9.17,9.17,0,0,0,.928-.753,6.719,6.719,0,0,1,5.048,6.294A1.978,1.978,0,0,1,2923.845-3139.373Z" transform="translate(-2901.091 3146.001)" fill="#21aaa4"/>
              <path id="Path_477" data-name="Path 477" d="M2920.153-3143.014a9.4,9.4,0,0,1-1.991-1.194,9.44,9.44,0,0,0,1.986,1.194c.135.06.271.115.409.167a8.845,8.845,0,0,0,1.6.454" transform="translate(-2912.377 3144.816)" fill="#21aaa4"/>
            </g>
          </g>
        </g>
      </g>
    </g>
    <path id="Path_981" data-name="Path 981" d="M2872.356-3186.941c0,11.66,17.6,39.166,21.115,39.166v-60.28A21.115,21.115,0,0,0,2872.356-3186.941Z" transform="translate(-86.509 -120.184)" fill="#fff" opacity="0.1"/>
    <g id="Group_223" data-name="Group 223" transform="translate(2701.026 -3331.669)">
      <path id="Path_982" data-name="Path 982" d="M2714.308-3346.427l-4.1,4.1a.6.6,0,0,1-.84-.054l-1.974-1.974a.6.6,0,0,1-.054-.84l4.051-4.051a6.242,6.242,0,0,0-7.5.713,6.045,6.045,0,0,0-1.223,6.37l-9.8,9.8a2.57,2.57,0,0,0,.233,3.612l.527.527a2.57,2.57,0,0,0,3.612.233l9.671-9.672a6.119,6.119,0,0,0,6.806-1.052A6.28,6.28,0,0,0,2714.308-3346.427Zm-17.791,16.913a1.526,1.526,0,0,1-2.158-.029l-.162-.162a1.526,1.526,0,0,1-.029-2.158l7.46-7.461a1.526,1.526,0,0,1,2.158.029l.162.162a1.526,1.526,0,0,1,.029,2.158Zm12.378-11.547a.6.6,0,0,1-.84-.054l-2.16-2.16a.6.6,0,0,1-.055-.84l.025-.025a.6.6,0,0,1,.84.054l2.16,2.16a.6.6,0,0,1,.055.84Z" transform="translate(-2692.233 3350.164)" fill="#21aaa4"/>
      <circle id="Ellipse_48" data-name="Ellipse 48" cx="0.859" cy="0.859" r="0.859" transform="translate(2.365 18.503)" fill="#21aaa4"/>
    </g>
    <path id="Path_983" data-name="Path 983" d="M2663.511-3358.553c0,11.66,17.6,39.166,21.115,39.166v-60.28A21.115,21.115,0,0,0,2663.511-3358.553Z" transform="translate(27.782 38)" fill="#fff" opacity="0.1"/>
  </g>
</svg>
