<svg xmlns="http://www.w3.org/2000/svg" width="137.149" height="125.941" viewBox="0 0 137.149 125.941">
  <g id="Group_231" data-name="Group 231" transform="translate(-3503.389 3617.053)">
    <g id="Group_230" data-name="Group 230" transform="translate(3503.389 -3580.553)">
      <g id="Group_229" data-name="Group 229">
        <path id="Path_990" data-name="Path 990" d="M3690.671-3556.851a246.349,246.349,0,0,1-16.083,88.557.541.541,0,0,1-.507.351h-36.995a.534.534,0,0,1-.412-.875,240.009,240.009,0,0,0,45.866-88.174.534.534,0,0,1,.515-.393h7.074A.54.54,0,0,1,3690.671-3556.851Z" transform="translate(-3556.438 3557.384)" fill="#21aaa4"/>
        <path id="Path_991" data-name="Path 991" d="M3720.517-3557.384h0a.54.54,0,0,1,.539.494,249.225,249.225,0,0,1-9.043,88.554.542.542,0,0,1-.52.394h-3.452a.535.535,0,0,1-.508-.7,247.591,247.591,0,0,0,12.45-88.18A.532.532,0,0,1,3720.517-3557.384Z" transform="translate(-3584.705 3557.384)" fill="#19807c"/>
        <path id="Path_992" data-name="Path 992" d="M3633.3-3557.384h6.369a.541.541,0,0,1,.512.713,238.517,238.517,0,0,1-54.495,88.563.54.54,0,0,1-.39.166h-49.526a.536.536,0,0,1-.227-1.021,227.366,227.366,0,0,0,97.3-88.16A.533.533,0,0,1,3633.3-3557.384Z" transform="translate(-3516.076 3557.384)" fill="#21aaa4"/>
        <path id="Path_993" data-name="Path 993" d="M3618.308-3557.021a.531.531,0,0,1,.354-.23l.768-.132a225.5,225.5,0,0,1-107.83,89.4.548.548,0,0,1-.2.039h-7.471a.536.536,0,0,1-.175-1.044A223.456,223.456,0,0,0,3618.308-3557.021Z" transform="translate(-3503.389 3557.384)" fill="#19807c"/>
      </g>
    </g>
    <path id="Path_994" data-name="Path 994" d="M3601.838-3593.3c0,11.495-17.35,38.611-20.815,38.611s-20.815-27.116-20.815-38.611a20.815,20.815,0,0,1,20.815-20.815A20.814,20.814,0,0,1,3601.838-3593.3Z" transform="translate(15.781 -2.942)" fill="#21aaa4"/>
    <path id="Path_995" data-name="Path 995" d="M3603.363-3587.574a17.884,17.884,0,0,1-17.886,17.885,17.884,17.884,0,0,1-17.885-17.885,17.886,17.886,0,0,1,17.885-17.887A17.887,17.887,0,0,1,3603.363-3587.574Z" transform="translate(11.328 -8.159)" fill="#fff"/>
    <path id="Path_996" data-name="Path 996" d="M3597.931-3588.62a10.054,10.054,0,0,1,2.366,1.25l2.212-1.123,2.62,3.159-1.512,1.967a10.068,10.068,0,0,1,.791,2.556l2.357.77-.381,4.087-2.458.322a10.046,10.046,0,0,1-1.25,2.366l1.123,2.212-3.159,2.62-1.967-1.512a10.047,10.047,0,0,1-2.556.791l-.77,2.357-4.086-.381-.321-2.459a10.02,10.02,0,0,1-2.366-1.25l-2.212,1.123-2.62-3.159,1.512-1.967a10.064,10.064,0,0,1-.791-2.556l-2.358-.77.381-4.087,2.459-.321a10.061,10.061,0,0,1,1.25-2.366l-1.123-2.212,3.159-2.62,1.967,1.512a10.062,10.062,0,0,1,2.556-.791l.77-2.357,4.087.381.321,2.459Zm-2.9,5.124a4.4,4.4,0,0,0-4.793,3.975,4.4,4.4,0,0,0,3.975,4.793,4.4,4.4,0,0,0,4.793-3.976A4.4,4.4,0,0,0,3595.03-3583.5Z" transform="translate(2.573 -16.605)" fill="#21aaa4" fill-rule="evenodd"/>
    <path id="Path_997" data-name="Path 997" d="M3560.208-3593.3c0,11.495,17.351,38.611,20.815,38.611v-59.425A20.815,20.815,0,0,0,3560.208-3593.3Z" transform="translate(15.781 -2.942)" fill="#fff" opacity="0.1"/>
  </g>
</svg>
