<svg xmlns="http://www.w3.org/2000/svg" xmlns:xlink="http://www.w3.org/1999/xlink" width="215.797" height="136.491" viewBox="0 0 215.797 136.491">
  <defs>
    <clipPath id="clip-path">
      <path id="Path_1020" data-name="Path 1020" d="M2977.468-3172.076a48.167,48.167,0,0,1-48.172,48.17,48.167,48.167,0,0,1-48.17-48.17,48.172,48.172,0,0,1,48.17-48.174A48.173,48.173,0,0,1,2977.468-3172.076Z" transform="translate(-2881.126 3220.25)" fill="none"/>
    </clipPath>
    <clipPath id="clip-path-2">
      <path id="Path_1019" data-name="Path 1019" d="M2943.664-3188.979a31.266,31.266,0,0,1-31.27,31.268,31.266,31.266,0,0,1-31.268-31.268,31.27,31.27,0,0,1,31.268-31.271A31.27,31.27,0,0,1,2943.664-3188.979Z" transform="translate(-2881.126 3220.25)" fill="none"/>
    </clipPath>
  </defs>
  <g id="Group_407" data-name="Group 407" transform="translate(-821.992 -1956)">
    <g id="Group_253" data-name="Group 253" transform="translate(821.992 1956)">
      <g id="Group_250" data-name="Group 250" transform="translate(14.135 9.517)">
        <path id="Path_1015" data-name="Path 1015" d="M3259.124-4819.186h142.595a6.865,6.865,0,0,1,6.832,6.9v91.414a6.864,6.864,0,0,1-6.832,6.9H3259.124a6.864,6.864,0,0,1-6.832-6.9v-91.414A6.865,6.865,0,0,1,3259.124-4819.186Z" transform="translate(-3252.292 4819.186)" fill="#21aaa4"/>
      </g>
      <g id="Group_251" data-name="Group 251" transform="translate(17.568 12.314)">
        <path id="Path_1016" data-name="Path 1016" d="M3264.8-4813.109h137.808a5.728,5.728,0,0,1,5.745,5.71v87.554a5.727,5.727,0,0,1-5.745,5.709H3264.8a5.727,5.727,0,0,1-5.745-5.709V-4807.4A5.728,5.728,0,0,1,3264.8-4813.109Z" transform="translate(-3259.058 4813.109)" fill="#fff"/>
      </g>
      <g id="Group_257" data-name="Group 257" transform="translate(43.396 0)">
        <g id="Group_256" data-name="Group 256" transform="translate(0 0)" clip-path="url(#clip-path)">
          <g id="Group_139" data-name="Group 139" transform="translate(17.963 33.316)">
            <g id="Group_136" data-name="Group 136" transform="translate(13.349)">
              <path id="Path_472" data-name="Path 472" d="M2949.616-3166.516v.859a7.065,7.065,0,0,1-.066.853c-.041.419-.1.838-.172,1.251s-.181.893-.292,1.331a16.916,16.916,0,0,1-.846,2.43l-.153.334c-.187.392-.379.772-.585,1.144l-.187.334a16.773,16.773,0,0,1-2.836,3.568l-.32.292c-.181.167-.373.327-.56.487l-.379.306c-.286.219-.579.433-.873.666l-.133.086c-.4.262-.8.506-1.219.739-.378.206-.766.4-1.159.579h-.066a17.047,17.047,0,0,1-2.424.865l-.54.139a16.783,16.783,0,0,1-2.582.407l-.852.046h-.858l-.858-.046a16.786,16.786,0,0,1-2.583-.407l-.54-.139a16.666,16.666,0,0,1-2.417-.865h-.073c-.353-.16-.667-.333-1.039-.513-.454-.247-.905-.519-1.331-.805l-.134-.086a8.356,8.356,0,0,1-.873-.666l-.378-.306c-.194-.16-.379-.32-.559-.487s-.406-.373-.6-.565a16.723,16.723,0,0,1-2.557-3.3c-.067-.107-.133-.22-.193-.334-.212-.372-.406-.752-.585-1.144l-.146-.334a17.1,17.1,0,0,1-.852-2.43c-.114-.432-.213-.878-.286-1.331s-.133-.826-.173-1.245c0-.28-.053-.56-.066-.853s0-.573,0-.859v-1.378h0c0-.106.054-.212.06-.326s.041-.213.054-.313c.041-.312.093-.625.146-.932.08-.446.181-.892.292-1.331a16.327,16.327,0,0,1,.858-2.43l.074-.167.073-.167c.18-.386.379-.766.585-1.138.06-.114.127-.22.193-.334a16.909,16.909,0,0,1,2.837-3.568l.32-.292c.18-.166.373-.326.559-.486l.378-.307c.28-.219.572-.432.873-.666l.134-.086a16.292,16.292,0,0,1,2.37-1.331h.073a16.326,16.326,0,0,1,2.417-.872l.54-.134a16.24,16.24,0,0,1,2.583-.406c.28,0,.572-.041.858-.047h.858a5.145,5.145,0,0,1,.852.047,16.24,16.24,0,0,1,2.583.406l.54.134a16.567,16.567,0,0,1,2.424.872h.066a16.612,16.612,0,0,1,2.37,1.331l.133.086a8.951,8.951,0,0,1,.873.666l.379.307c.187.16.379.32.56.486l.313.292a16.591,16.591,0,0,1,2.843,3.568l.187.334c.213.372.407.752.585,1.138l.153.34a16.594,16.594,0,0,1,.846,2.43c.113.432.212.878.292,1.331s.133.825.172,1.244a1.588,1.588,0,0,0,.032.393,2.031,2.031,0,0,1,0,.453C2949.61-3167.088,2949.616-3166.8,2949.616-3166.516Z" transform="translate(-2915.962 3183.22)" fill="#21aaa4"/>
              <path id="Path_473" data-name="Path 473" d="M2916.227-3166.217m-.3-.153h.047a1.642,1.642,0,0,0,.26.133h-.053Z" transform="translate(-2915.928 3181.53)" fill="#21aaa4"/>
              <path id="Path_474" data-name="Path 474" d="M2915.928-3166.371l.248.12-.2-.1Z" transform="translate(-2915.928 3181.53)" fill="#21aaa4"/>
              <path id="Path_475" data-name="Path 475" d="M2916.277-3166.193" transform="translate(-2915.963 3181.512)" fill="#21aaa4"/>
            </g>
            <g id="Group_138" data-name="Group 138" transform="translate(0 33.486)">
              <g id="Group_137" data-name="Group 137">
                <path id="Path_476" data-name="Path 476" d="M2961.5-3128.4v18.749c0,.386-.152.3-.526.3h-59.162c-.372,0-.725.086-.725-.3V-3129.3a18.342,18.342,0,0,1,4.8-11.552l.254-.266a17.483,17.483,0,0,1,4.821-3.556l.327-.16c.5-.233,1-.44,1.524-.626l.346-.12c.467-.152.946-.286,1.417-.4q.89.849,1.837,1.6a25.1,25.1,0,0,0,5.286,3.169c.359.16.712.3,1.072.446a23.735,23.735,0,0,0,4.254,1.2,23.883,23.883,0,0,0,4.333.393,23.878,23.878,0,0,0,4.927-.566c.2-.046,3.049-.739,3.815-1.038.3-.12.6-.38.906-.513a12.061,12.061,0,0,0,4.161-2.5h0a.794.794,0,0,0,.426-.213,24.411,24.411,0,0,0,2.464-2,17.839,17.839,0,0,1,13.4,16.711A5.141,5.141,0,0,1,2961.5-3128.4Z" transform="translate(-2901.091 3146.001)" fill="#21aaa4"/>
                <path id="Path_477" data-name="Path 477" d="M2923.448-3141.039a24.959,24.959,0,0,1-5.286-3.169,25.023,25.023,0,0,0,5.273,3.169c.359.16.718.306,1.086.446a23.611,23.611,0,0,0,4.254,1.206" transform="translate(-2902.803 3145.821)" fill="#21aaa4"/>
              </g>
            </g>
          </g>
        </g>
      </g>
      <g id="Group_252" data-name="Group 252" transform="translate(0 0)" opacity="0.1">
        <path id="Path_1018" data-name="Path 1018" d="M3343.858-4819.186h-83.5a8.107,8.107,0,0,0-8.068,8.145v107.952a8.106,8.106,0,0,0,8.068,8.144h83.5v-124.241Z" transform="translate(-3252.292 4819.186)" fill="#fff"/>
      </g>
    </g>
    <g id="Group_249" data-name="Group 249" transform="translate(975.251 1976)">
      <g id="Group_248" data-name="Group 248">
        <path id="Path_1011" data-name="Path 1011" d="M2604.931-5131.149h51.559a5.49,5.49,0,0,1,5.49,5.489v105.512a5.49,5.49,0,0,1-5.49,5.49h-51.559a5.49,5.49,0,0,1-5.49-5.49V-5125.66A5.49,5.49,0,0,1,2604.931-5131.149Z" transform="translate(-2599.441 5131.149)" fill="#21aaa4"/>
      </g>
      <path id="Path_1012" data-name="Path 1012" d="M2611.953-4992.934h51.292a3.533,3.533,0,0,0,3.533-3.533v-97.7a3.533,3.533,0,0,0-3.533-3.533H2611.95a3.533,3.533,0,0,0-3.533,3.533v97.693A3.546,3.546,0,0,0,2611.953-4992.934Z" transform="translate(-2606.196 5105.972)" fill="#fff"/>
      <rect id="Rectangle_97" data-name="Rectangle 97" width="21.608" height="3.036" rx="1.518" transform="translate(42.073 5.951) rotate(-180)" fill="#19807c"/>
      <g id="Group_255" data-name="Group 255" transform="translate(0 16.774)">
        <g id="Group_254" data-name="Group 254" transform="translate(0 0)" clip-path="url(#clip-path-2)">
          <g id="Group_139-2" data-name="Group 139" transform="translate(11.66 21.626)">
            <g id="Group_136-2" data-name="Group 136" transform="translate(8.665)">
              <path id="Path_472-2" data-name="Path 472" d="M2937.914-3172.377v.558a4.531,4.531,0,0,1-.043.553c-.026.272-.064.544-.111.812s-.118.58-.19.864a10.886,10.886,0,0,1-.549,1.578l-.1.217c-.121.255-.246.5-.38.743l-.122.217a10.868,10.868,0,0,1-1.841,2.316l-.208.19c-.117.108-.242.212-.363.316l-.246.2c-.186.143-.375.281-.566.432l-.086.056c-.256.17-.521.329-.792.479q-.369.2-.752.376h-.043a11.049,11.049,0,0,1-1.573.562l-.351.091a10.867,10.867,0,0,1-1.676.264l-.553.03h-.557l-.557-.03a10.863,10.863,0,0,1-1.677-.264l-.351-.091a10.776,10.776,0,0,1-1.569-.562h-.047c-.229-.1-.433-.216-.674-.333-.294-.16-.587-.337-.864-.523l-.087-.056a5.4,5.4,0,0,1-.567-.432l-.246-.2c-.125-.1-.246-.208-.363-.316s-.264-.242-.39-.367a10.872,10.872,0,0,1-1.66-2.139c-.043-.069-.086-.143-.125-.217-.138-.242-.263-.488-.379-.743l-.1-.217a11.1,11.1,0,0,1-.553-1.578c-.074-.28-.138-.57-.186-.864s-.086-.536-.112-.808c0-.182-.034-.363-.043-.554s0-.372,0-.558v-.895h0c0-.069.035-.138.039-.211s.027-.138.035-.2c.026-.2.061-.406.095-.6.052-.29.118-.579.19-.864a10.6,10.6,0,0,1,.557-1.577l.048-.108.047-.109c.117-.25.246-.5.38-.739.039-.073.082-.142.125-.217a11,11,0,0,1,1.842-2.316l.208-.19c.117-.108.242-.211.362-.315l.246-.2c.182-.143.372-.281.566-.432l.087-.056a10.586,10.586,0,0,1,1.539-.864h.047a10.6,10.6,0,0,1,1.568-.566l.351-.087a10.538,10.538,0,0,1,1.677-.263c.182,0,.372-.026.557-.031h.557a3.332,3.332,0,0,1,.553.031,10.524,10.524,0,0,1,1.676.263l.351.087a10.751,10.751,0,0,1,1.573.566h.043a10.729,10.729,0,0,1,1.538.864l.087.056a5.871,5.871,0,0,1,.566.432l.246.2c.122.1.246.208.363.315l.2.19a10.767,10.767,0,0,1,1.846,2.316l.122.217q.207.363.379.739l.1.221a10.825,10.825,0,0,1,.549,1.577c.074.28.138.57.19.864s.086.536.111.808a1.027,1.027,0,0,0,.021.255,1.311,1.311,0,0,1,0,.294C2937.91-3172.748,2937.914-3172.563,2937.914-3172.377Z" transform="translate(-2916.068 3183.22)" fill="#21aaa4"/>
              <path id="Path_473-2" data-name="Path 473" d="M2916.122-3166.271m-.194-.1h.031a1.039,1.039,0,0,0,.169.086h-.035Z" transform="translate(-2915.928 3176.211)" fill="#21aaa4"/>
              <path id="Path_474-2" data-name="Path 474" d="M2915.928-3166.371l.161.077-.13-.065Z" transform="translate(-2915.928 3176.211)" fill="#21aaa4"/>
              <path id="Path_475-2" data-name="Path 475" d="M2916.277-3166.193" transform="translate(-2916.073 3176.137)" fill="#21aaa4"/>
            </g>
            <g id="Group_138-2" data-name="Group 138" transform="translate(0 21.737)">
              <g id="Group_137-2" data-name="Group 137">
                <path id="Path_476-2" data-name="Path 476" d="M2940.306-3134.578v12.17c0,.251-.1.195-.342.195h-38.4c-.242,0-.471.056-.471-.195v-12.754a11.905,11.905,0,0,1,3.116-7.5l.165-.173a11.354,11.354,0,0,1,3.129-2.308l.213-.1c.324-.151.652-.286.99-.406l.225-.078c.3-.1.614-.186.92-.26q.578.551,1.193,1.037a16.3,16.3,0,0,0,3.431,2.057c.233.1.462.195.7.29a15.433,15.433,0,0,0,2.761.782,15.5,15.5,0,0,0,2.813.255,15.479,15.479,0,0,0,3.2-.367c.13-.03,1.979-.479,2.476-.674.194-.078.39-.247.588-.333a7.827,7.827,0,0,0,2.7-1.625h0a.515.515,0,0,0,.276-.138,15.849,15.849,0,0,0,1.6-1.3,11.58,11.58,0,0,1,8.7,10.848A3.351,3.351,0,0,1,2940.306-3134.578Z" transform="translate(-2901.091 3146.001)" fill="#21aaa4"/>
                <path id="Path_477-2" data-name="Path 477" d="M2921.593-3142.151a16.207,16.207,0,0,1-3.431-2.058,16.256,16.256,0,0,0,3.423,2.058c.233.1.466.2.705.289a15.357,15.357,0,0,0,2.761.782" transform="translate(-2908.192 3145.255)" fill="#21aaa4"/>
              </g>
            </g>
          </g>
        </g>
      </g>
      <path id="Path_1014" data-name="Path 1014" d="M2725.82-5131.149H2751.6a5.489,5.489,0,0,1,5.489,5.489v105.512a5.49,5.49,0,0,1-5.489,5.49H2725.82" transform="translate(-2694.551 5131.149)" fill="#fff" opacity="0.1"/>
    </g>
  </g>
</svg>
