<svg xmlns="http://www.w3.org/2000/svg" xmlns:xlink="http://www.w3.org/1999/xlink" width="491.586" height="712.412" viewBox="0 0 491.586 712.412">
  <defs>
    <radialGradient id="radial-gradient" cx="0.5" cy="0.5" r="0.54" gradientTransform="matrix(0.982, -0.188, 0.148, 0.776, -0.065, 0.206)" gradientUnits="objectBoundingBox">
      <stop offset="0" stop-opacity="0.349"/>
      <stop offset="0.669" stop-opacity="0.122"/>
      <stop offset="1" stop-color="#87ceda" stop-opacity="0"/>
    </radialGradient>
  </defs>
  <g id="Group_788" data-name="Group 788" transform="translate(1026.585 -3790.127)">
    <path id="Path_3074" data-name="Path 3074" d="M1671.317-1356.564c0,17.631-108.167,31.925-241.6,31.925s-241.6-14.295-241.6-31.925,108.168-31.925,241.6-31.925S1671.317-1374.2,1671.317-1356.564Z" transform="translate(-2387.496 5581.685) rotate(8)" opacity="0.35" fill="url(#radial-gradient)" style="mix-blend-mode: multiply;isolation: isolate"/>
    <path id="Path_519" data-name="Path 519" d="M2803.214-1793.041a4.325,4.325,0,0,1-2.923-1.132c-7.367-6.715-15.1-8.8-22.981-6.187a27.42,27.42,0,0,0-9.929,5.987,4.34,4.34,0,0,1-6.136.121,4.339,4.339,0,0,1-.122-6.136,35.929,35.929,0,0,1,13.458-8.211c7.619-2.523,19.278-3.182,31.558,8.011a4.34,4.34,0,0,1,.283,6.131A4.329,4.329,0,0,1,2803.214-1793.041Z" transform="translate(-3427.351 5636.779)" fill="#45ebc3"/>
    <path id="Path_520" data-name="Path 520" d="M2804.515-1820.32a4.317,4.317,0,0,1-2.922-1.132c-12.8-11.666-26.318-15.312-40.182-10.837a47.8,47.8,0,0,0-17.732,10.645,4.345,4.345,0,0,1-6.133.1,4.335,4.335,0,0,1-.118-6.125,55.884,55.884,0,0,1,20.96-12.765c11.8-3.908,29.889-4.9,49.051,12.565a4.34,4.34,0,0,1,.284,6.131A4.328,4.328,0,0,1,2804.515-1820.32Z" transform="translate(-3416.338 5651.961)" fill="#45ebc3"/>
    <path id="Path_521" data-name="Path 521" d="M2806.1-1850.7a4.322,4.322,0,0,1-2.923-1.133c-18.119-16.516-37.305-21.638-57.026-15.225a67.416,67.416,0,0,0-24.962,15.031,4.343,4.343,0,0,1-6.134.108,4.337,4.337,0,0,1-.119-6.128,75.11,75.11,0,0,1,28.186-17.152c15.828-5.243,40.111-6.556,65.9,16.952a4.34,4.34,0,0,1,.283,6.131A4.329,4.329,0,0,1,2806.1-1850.7Z" transform="translate(-3405.882 5668.495)" fill="#45ebc3" opacity="0.54"/>
    <circle id="Ellipse_23" data-name="Ellipse 23" cx="5.606" cy="5.606" r="5.606" transform="translate(-649.533 3845.232)" fill="#45ebc3"/>
    <g id="Group_309" data-name="Group 309" transform="matrix(0.998, 0.07, -0.07, 0.998, -5635.599, 5204.708)">
      <path id="Path_1155" data-name="Path 1155" d="M4627.138-1231.123h51.326a4.631,4.631,0,0,1,4.63,4.631h0a4.63,4.63,0,0,1-4.63,4.63h-51.326a4.63,4.63,0,0,1-4.63-4.63h0A4.63,4.63,0,0,1,4627.138-1231.123Z" transform="translate(13.047 97.345)" fill="#46978c"/>
      <g id="Group_286" data-name="Group 286" transform="translate(4564.622 -1191.67)">
        <path id="Path_1156" data-name="Path 1156" d="M4564.643-1258.527l.008-.03h2.521l-1.044.906A.909.909,0,0,1,4564.643-1258.527Z" transform="translate(-4564.622 1282.832)" fill="#52b4a5"/>
        <path id="Path_1157" data-name="Path 1157" d="M4603.849-1276.037a26.725,26.725,0,0,1,11.146-2.329q1.883,0,3.739.178c18.482,11.656,32.294,36.745,28.834,59.957l-8.462-.661a2.829,2.829,0,0,1-2.6-3.077C4638.737-1246.411,4622.693-1268.916,4603.849-1276.037Z" transform="translate(-4555.78 1278.367)" fill="#21aba5"/>
        <path id="Path_1158" data-name="Path 1158" d="M4616-1278.222l-.009,0c25.363,2.39,46.458,28.814,43.22,58.08a1.692,1.692,0,0,0,1.681,1.88h-16.058C4648.292-1241.477,4634.48-1266.566,4616-1278.222Z" transform="translate(-4553.044 1278.399)" fill="#19807c"/>
      </g>
      <g id="Group_291" data-name="Group 291" transform="translate(4890.625 -1180.442)">
        <g id="Group_290" data-name="Group 290">
          <g id="Group_289" data-name="Group 289" style="isolation: isolate">
            <g id="Group_287" data-name="Group 287">
              <path id="Path_1159" data-name="Path 1159" d="M4875.344-1182.156h-13.907c-17,0-30.775-19.489-30.775-43.525s13.777-43.523,30.775-43.523h13.907c-17,0-30.775,19.487-30.775,43.523S4858.344-1182.156,4875.344-1182.156Z" transform="translate(-4830.662 1269.204)" fill="#164153"/>
            </g>
            <g id="Group_288" data-name="Group 288" transform="translate(13.907)">
              <path id="Path_1160" data-name="Path 1160" d="M4872.786-1269.2c17,0,30.773,19.487,30.773,43.523s-13.776,43.525-30.773,43.525-30.775-19.489-30.775-43.525S4855.786-1269.2,4872.786-1269.2Z" transform="translate(-4842.011 1269.204)" fill="#1d566e"/>
            </g>
          </g>
        </g>
        <path id="Path_1161" data-name="Path 1161" d="M4893.521-1228.413c0,15.832-9.07,28.667-20.259,28.667S4853-1212.581,4853-1228.413s9.069-28.667,20.258-28.667S4893.521-1244.245,4893.521-1228.413Z" transform="translate(-4825.626 1271.937)" fill="#e9e7eb"/>
        <ellipse id="Ellipse_74" data-name="Ellipse 74" cx="16.375" cy="23.3" rx="16.375" ry="23.3" transform="translate(31.271 20.224)" fill="#d5d1d8"/>
        <path id="Path_1162" data-name="Path 1162" d="M4883.379-1230.053c0,10.907-6.087,19.75-13.6,19.75s-13.6-8.843-13.6-19.75,6.087-19.751,13.6-19.751S4883.379-1240.962,4883.379-1230.053Z" transform="translate(-4824.91 1273.577)" fill="#e9e7eb"/>
      </g>
      <g id="Group_296" data-name="Group 296" transform="translate(4576.454 -1180.442)">
        <g id="Group_295" data-name="Group 295">
          <g id="Group_294" data-name="Group 294" style="isolation: isolate">
            <g id="Group_292" data-name="Group 292">
              <path id="Path_1163" data-name="Path 1163" d="M4618.96-1182.156h-13.906c-17,0-30.776-19.489-30.776-43.525s13.776-43.523,30.776-43.523h13.906c-17,0-30.776,19.487-30.776,43.523S4601.961-1182.156,4618.96-1182.156Z" transform="translate(-4574.277 1269.204)" fill="#164153"/>
            </g>
            <g id="Group_293" data-name="Group 293" transform="translate(13.906)">
              <path id="Path_1164" data-name="Path 1164" d="M4616.4-1269.2c17,0,30.773,19.487,30.773,43.523s-13.776,43.525-30.773,43.525-30.776-19.489-30.776-43.525S4599.4-1269.2,4616.4-1269.2Z" transform="translate(-4585.626 1269.204)" fill="#1d566e"/>
            </g>
          </g>
        </g>
        <path id="Path_1165" data-name="Path 1165" d="M4637.135-1228.413c0,15.832-9.07,28.667-20.258,28.667s-20.259-12.835-20.259-28.667,9.07-28.667,20.259-28.667S4637.135-1244.245,4637.135-1228.413Z" transform="translate(-4569.243 1271.937)" fill="#e9e7eb"/>
        <ellipse id="Ellipse_75" data-name="Ellipse 75" cx="16.375" cy="23.3" rx="16.375" ry="23.3" transform="translate(31.271 20.224)" fill="#d5d1d8"/>
        <path id="Path_1166" data-name="Path 1166" d="M4627-1230.053c0,10.907-6.089,19.75-13.6,19.75s-13.6-8.843-13.6-19.75,6.089-19.751,13.6-19.751S4627-1240.962,4627-1230.053Z" transform="translate(-4568.526 1273.577)" fill="#e9e7eb"/>
      </g>
      <g id="Group_297" data-name="Group 297" transform="translate(4614.069 -1147.356)">
        <path id="Path_1167" data-name="Path 1167" d="M4621.178-1231.766c0,5.764-3.037,10.437-6.782,10.437s-6.779-4.673-6.779-10.437,3.035-10.438,6.779-10.438S4621.178-1237.531,4621.178-1231.766Z" transform="translate(-4604.378 1242.204)" fill="#d2c9d2"/>
        <path id="Path_1168" data-name="Path 1168" d="M4608.211-1231.766c0-5.765,3.035-10.438,6.78-10.438h-3.236c-3.744,0-6.781,4.672-6.781,10.438s3.037,10.437,6.781,10.437h3.236C4611.247-1221.329,4608.211-1226,4608.211-1231.766Z" transform="translate(-4604.974 1242.204)" fill="#beb1be"/>
      </g>
      <g id="Group_298" data-name="Group 298" transform="translate(4564.649 -1199.824)">
        <path id="Path_1169" data-name="Path 1169" d="M4669.455-1216.732c5.145-33.278-25.238-68.289-51.829-68.289-29.353,0-37.146,22.268-39.638,32.429l5.551,1.588a7.768,7.768,0,0,0,9.307-4.474c3.451-8.246,11.531-21.389,27.978-21.389,26.983,0,50.346,27.565,46.95,58.255a1.692,1.692,0,0,0,1.681,1.88Z" transform="translate(-4561.637 1285.021)" fill="#45ebc3"/>
        <path id="Path_1170" data-name="Path 1170" d="M4602.593-1285.021h18.04c-29.353,0-37.146,22.268-39.638,32.429h-16.352C4567.093-1264.23,4575.178-1285.021,4602.593-1285.021Z" transform="translate(-4564.644 1285.021)" fill="#4dbcb7"/>
      </g>
      <path id="Path_1171" data-name="Path 1171" d="M4674.435-1229.651h37.9v9.26h-32.5a73.807,73.807,0,0,1-10.741-.787l-50.027-7.365a4.581,4.581,0,0,1-3.914-4.531h0a4.58,4.58,0,0,1,5.247-4.531Z" transform="translate(11.389 95.873)" fill="#19807c"/>
      <path id="Path_1172" data-name="Path 1172" d="M4832.813-1278l8.821-6.088s5.506-1.587,20.5-2.722,20.271-.363,20.271-.363l9.953,4.686a7.868,7.868,0,0,1,4.494,6.524l.222,2.967h0l3.793,52.271c.308,4.062-2.017,7.663-5.192,8.046l-17.823,2.145c-3.449.414-6.812-1.576-8.8-5.213l-7.1-12.96a14.61,14.61,0,0,1-1.7-5.892l-2.008-28.23a4.345,4.345,0,0,0-4.334-4.038h-24.164l-.307-4.067A7.868,7.868,0,0,1,4832.813-1278Z" transform="translate(59.682 84.655)" fill="#4dbcb7"/>
      <path id="Path_1173" data-name="Path 1173" d="M4839.386-1282.491s6.187,1.751,21.612.538,19.159-3.622,19.159-3.622l-2.288-5.121a6.013,6.013,0,0,0-5.067-3.551,98.242,98.242,0,0,0-13.8-.02,98.511,98.511,0,0,0-13.645,2.1,6.013,6.013,0,0,0-4.476,4.273Z" transform="translate(61.929 83.06)" fill="#e5e3e8"/>
      <g id="Group_299" data-name="Group 299" transform="translate(4939.637 -1146.036)">
        <path id="Path_1174" data-name="Path 1174" d="M4882.506-1232.009c0,5.035-2.652,9.118-5.923,9.118s-5.924-4.083-5.924-9.118,2.652-9.118,5.924-9.118S4882.506-1237.045,4882.506-1232.009Z" transform="translate(-4870.659 1241.127)" fill="#f3f1f3"/>
      </g>
      <path id="Path_1175" data-name="Path 1175" d="M4854.317-1340c5.638-.426,10.3.447,10.409,1.951.263,3.483,3.885,51.366,4.132,54.632.114,1.5-4.359,3.067-10,3.494s-10.3-.447-10.41-1.949c-.247-3.266-3.867-51.15-4.131-54.633C4844.206-1338.008,4848.683-1339.573,4854.317-1340Z" transform="translate(63.041 72.781)" fill="#4dbcb7"/>
      <path id="Path_1176" data-name="Path 1176" d="M4842.121-1335.746l-.583-7.721c-.184-2.419,5.454-4.818,12.588-5.359s13.069.985,13.251,3.405l.584,7.72c.183,2.42-5.45,4.819-12.589,5.359S4842.3-1333.326,4842.121-1335.746Z" transform="translate(62.414 70.792)" fill="#e5e3e8"/>
      <path id="Path_1177" data-name="Path 1177" d="M4851.278-1380.169c5.639-.428,10.3.446,10.41,1.949.263,3.483,2.7,35.728,2.949,38.993.114,1.5-4.358,3.066-10,3.492s-10.3-.446-10.41-1.949c-.247-3.266-2.685-35.51-2.949-38.993C4841.167-1378.179,4845.645-1379.744,4851.278-1380.169Z" transform="translate(62.355 63.727)" fill="#4dbcb7"/>
      <path id="Path_1178" data-name="Path 1178" d="M4842.92-1589.883h0l-3.575-26.356-13.053.988.429,26.592h0c2.047,27.056,19.8,261.783,19.984,264.241.09,1.193,3.791,1.886,8.264,1.549s8.026-1.581,7.936-2.774C4862.718-1328.1,4844.965-1562.829,4842.92-1589.883Z" transform="translate(58.978 10.544)" fill="#1d566e"/>
      <g id="Group_300" data-name="Group 300" transform="translate(4629.492 -1193.78)">
        <path id="Path_1179" data-name="Path 1179" d="M4787.646-1224.043l48.129-50.812a16.755,16.755,0,0,1,12.167-5.234h18.275a7.392,7.392,0,0,1,7.183,9.14l-13.589,55.853a5.589,5.589,0,0,1-5.432,4.269h-77.4v-9.26h1.47A12.662,12.662,0,0,0,4787.646-1224.043Z" transform="translate(-4581.627 1280.089)" fill="#21aba5"/>
        <path id="Path_1180" data-name="Path 1180" d="M4708.271-1220.733h183.337a3.94,3.94,0,0,0,3.828-3.008l13.006-53.48a7.334,7.334,0,0,1,.89,5.626l-3.882,15.955h0l-9.708,39.9a5.589,5.589,0,0,1-5.431,4.269H4708.271q-3.687,0-7.359-.369l-79.206-7.943a4.6,4.6,0,0,1-4.146-4.583h0a4.606,4.606,0,0,1,5.066-4.584l78.287,7.851Q4704.581-1220.733,4708.271-1220.733Z" transform="translate(-4617.56 1280.735)" fill="#45ebc3"/>
      </g>
      <path id="Path_1181" data-name="Path 1181" d="M4826.628-1610.54l-1.824-24.13c-.082-1.056,2.777-2.133,6.382-2.407s6.591.364,6.671,1.42l1.824,24.129c.079,1.056-2.774,2.133-6.382,2.407S4826.707-1609.484,4826.628-1610.54Z" transform="translate(58.642 5.833)" fill="#d1cdd5"/>
      <path id="Path_1182" data-name="Path 1182" d="M4840.114-1639.422l.213,2.82c.106,1.4-3.691,2.836-8.479,3.2s-8.756-.483-8.864-1.886l-.213-2.821c-.106-1.4,3.687-2.834,8.479-3.2S4840.008-1640.825,4840.114-1639.422Z" transform="translate(58.183 4.875)" fill="#e5e3e8"/>
      <path id="Path_1183" data-name="Path 1183" d="M4833.964-1648.958c2.716.164,3.034,1.854,3.034,1.854l.21,2.781.384,5.083c.081,1.056-2.774,2.134-6.382,2.407s-6.591-.363-6.671-1.42c0,0-.2-2.655-.385-5.082-.127-1.695-.248-3.277-.284-3.768C4828.975-1647.1,4831.249-1649.122,4833.964-1648.958Z" transform="translate(58.432 3.167)" fill="#d1cdd5"/>
      <g id="Group_304" data-name="Group 304" transform="translate(4782.724 -1663.019)">
        <g id="Group_303" data-name="Group 303" style="isolation: isolate">
          <g id="Group_301" data-name="Group 301">
            <path id="Path_1184" data-name="Path 1184" d="M4821.1-1639.977h-70.346c-4.5,0-8.146-5.154-8.146-11.521s3.648-11.521,8.146-11.521H4821.1c-4.5,0-8.146,5.16-8.146,11.521S4816.6-1639.977,4821.1-1639.977Z" transform="translate(-4742.608 1663.019)" fill="#1d566e"/>
          </g>
          <g id="Group_302" data-name="Group 302" transform="translate(70.346 0)">
            <ellipse id="Ellipse_76" data-name="Ellipse 76" cx="8.146" cy="11.521" rx="8.146" ry="11.521" fill="#164153"/>
          </g>
        </g>
      </g>
      <path id="Path_1185" data-name="Path 1185" d="M4858.432-1659.619h-46.593c-2.912,0-5.274,3.339-5.274,7.458s2.362,7.458,5.274,7.458h46.593c2.912,0,5.274-3.335,5.274-7.458S4861.344-1659.619,4858.432-1659.619Z" transform="translate(54.532 0.766)" fill="#d1cdd5"/>
      <g id="Group_308" data-name="Group 308" transform="translate(4910.126 -1663.019)">
        <g id="Group_307" data-name="Group 307" style="isolation: isolate">
          <g id="Group_305" data-name="Group 305">
            <path id="Path_1186" data-name="Path 1186" d="M4925.068-1639.977h-70.346c-4.5,0-8.146-5.154-8.146-11.521s3.648-11.521,8.146-11.521h70.346c-4.5,0-8.146,5.16-8.146,11.521S4920.57-1639.977,4925.068-1639.977Z" transform="translate(-4846.576 1663.019)" fill="#1d566e"/>
          </g>
          <g id="Group_306" data-name="Group 306" transform="translate(70.346)">
            <path id="Path_1187" data-name="Path 1187" d="M4912.129-1663.019c4.5,0,8.146,5.16,8.146,11.521s-3.647,11.521-8.146,11.521-8.146-5.154-8.146-11.521S4907.631-1663.019,4912.129-1663.019Z" transform="translate(-4903.982 1663.019)" fill="#164153"/>
          </g>
        </g>
      </g>
    </g>
  </g>
</svg>
